<svg xmlns="http://www.w3.org/2000/svg" xmlns:xlink="http://www.w3.org/1999/xlink" width="500" zoomAndPan="magnify" viewBox="0 0 375 374.999991" height="500" preserveAspectRatio="xMidYMid meet" version="1.0"><defs><clipPath id="56247c6916"><path d="M 10.621094 10.621094 L 364.621094 10.621094 L 364.621094 364.621094 L 10.621094 364.621094 Z M 10.621094 10.621094 " clip-rule="nonzero"/></clipPath><clipPath id="7194010dd2"><path d="M 33.613281 34.351562 L 340.5625 34.351562 L 340.5625 341.300781 L 33.613281 341.300781 Z M 33.613281 34.351562 " clip-rule="nonzero"/></clipPath><clipPath id="f96b9c7b27"><path d="M 52.347656 52 L 277 52 L 277 271.992188 L 52.347656 271.992188 Z M 52.347656 52 " clip-rule="nonzero"/></clipPath><clipPath id="d312731f88"><path d="M 191.898438 -5.113281 L 276.425781 83.226562 L 79.753906 271.410156 L -4.773438 183.070312 Z M 191.898438 -5.113281 " clip-rule="nonzero"/></clipPath><clipPath id="ab569efdeb"><path d="M 191.898438 -5.113281 L 380.082031 191.558594 L 183.410156 379.742188 L -4.773438 183.070312 Z M 191.898438 -5.113281 " clip-rule="nonzero"/></clipPath><clipPath id="275a8d7e2e"><path d="M 250.371094 210.183594 L 265.832031 210.183594 L 265.832031 225.648438 L 250.371094 225.648438 Z M 250.371094 210.183594 " clip-rule="nonzero"/></clipPath><clipPath id="7a0f59aca6"><path d="M 258.101562 210.183594 C 253.832031 210.183594 250.371094 213.648438 250.371094 217.917969 C 250.371094 222.1875 253.832031 225.648438 258.101562 225.648438 C 262.371094 225.648438 265.832031 222.1875 265.832031 217.917969 C 265.832031 213.648438 262.371094 210.183594 258.101562 210.183594 " clip-rule="nonzero"/></clipPath></defs><g clip-path="url(#56247c6916)"><path fill="#48fcfa" d="M 364.621094 187.621094 C 364.621094 190.519531 364.550781 193.414062 364.410156 196.308594 C 364.265625 199.199219 364.054688 202.089844 363.769531 204.972656 C 363.484375 207.855469 363.132812 210.726562 362.707031 213.59375 C 362.28125 216.457031 361.785156 219.3125 361.222656 222.152344 C 360.65625 224.992188 360.019531 227.820312 359.316406 230.628906 C 358.613281 233.4375 357.839844 236.230469 357 239.003906 C 356.160156 241.773438 355.25 244.523438 354.273438 247.25 C 353.300781 249.980469 352.257812 252.679688 351.148438 255.355469 C 350.039062 258.03125 348.867188 260.679688 347.628906 263.300781 C 346.390625 265.917969 345.085938 268.503906 343.722656 271.058594 C 342.355469 273.613281 340.929688 276.132812 339.441406 278.617188 C 337.949219 281.101562 336.402344 283.550781 334.792969 285.957031 C 333.183594 288.367188 331.515625 290.734375 329.789062 293.0625 C 328.0625 295.386719 326.28125 297.671875 324.445312 299.910156 C 322.605469 302.148438 320.714844 304.339844 318.769531 306.488281 C 316.824219 308.632812 314.828125 310.730469 312.78125 312.78125 C 310.730469 314.828125 308.632812 316.824219 306.488281 318.769531 C 304.339844 320.714844 302.148438 322.605469 299.910156 324.445312 C 297.671875 326.28125 295.386719 328.0625 293.0625 329.789062 C 290.734375 331.515625 288.367188 333.183594 285.957031 334.792969 C 283.550781 336.402344 281.101562 337.949219 278.617188 339.441406 C 276.132812 340.929688 273.613281 342.355469 271.058594 343.722656 C 268.503906 345.085938 265.917969 346.390625 263.300781 347.628906 C 260.679688 348.867188 258.03125 350.039062 255.355469 351.148438 C 252.679688 352.257812 249.980469 353.300781 247.25 354.273438 C 244.523438 355.25 241.773438 356.160156 239.003906 357 C 236.230469 357.839844 233.4375 358.613281 230.628906 359.316406 C 227.820312 360.019531 224.992188 360.65625 222.152344 361.222656 C 219.3125 361.785156 216.457031 362.28125 213.59375 362.707031 C 210.726562 363.132812 207.855469 363.484375 204.972656 363.769531 C 202.089844 364.054688 199.199219 364.265625 196.308594 364.410156 C 193.414062 364.550781 190.519531 364.621094 187.621094 364.621094 C 184.726562 364.621094 181.832031 364.550781 178.9375 364.410156 C 176.042969 364.265625 173.15625 364.054688 170.273438 363.769531 C 167.390625 363.484375 164.515625 363.132812 161.652344 362.707031 C 158.785156 362.28125 155.933594 361.785156 153.089844 361.222656 C 150.25 360.65625 147.425781 360.019531 144.613281 359.316406 C 141.804688 358.613281 139.011719 357.839844 136.242188 357 C 133.46875 356.160156 130.71875 355.25 127.992188 354.273438 C 125.265625 353.300781 122.5625 352.257812 119.886719 351.148438 C 117.210938 350.039062 114.5625 348.867188 111.945312 347.628906 C 109.324219 346.390625 106.738281 345.085938 104.183594 343.722656 C 101.628906 342.355469 99.109375 340.929688 96.625 339.441406 C 94.140625 337.949219 91.695312 336.402344 89.285156 334.792969 C 86.878906 333.183594 84.511719 331.515625 82.183594 329.789062 C 79.855469 328.0625 77.574219 326.28125 75.335938 324.445312 C 73.09375 322.605469 70.902344 320.714844 68.757812 318.769531 C 66.609375 316.824219 64.511719 314.828125 62.464844 312.78125 C 60.414062 310.730469 58.417969 308.632812 56.472656 306.488281 C 54.527344 304.339844 52.636719 302.148438 50.800781 299.910156 C 48.960938 297.671875 47.179688 295.386719 45.453125 293.0625 C 43.730469 290.734375 42.0625 288.367188 40.453125 285.957031 C 38.84375 283.550781 37.292969 281.101562 35.804688 278.617188 C 34.316406 276.132812 32.886719 273.613281 31.523438 271.058594 C 30.15625 268.503906 28.855469 265.917969 27.617188 263.300781 C 26.378906 260.679688 25.203125 258.03125 24.09375 255.355469 C 22.988281 252.679688 21.945312 249.980469 20.96875 247.25 C 19.992188 244.523438 19.085938 241.773438 18.242188 239.003906 C 17.402344 236.230469 16.628906 233.4375 15.925781 230.628906 C 15.222656 227.820312 14.589844 224.992188 14.023438 222.152344 C 13.457031 219.3125 12.960938 216.457031 12.539062 213.59375 C 12.113281 210.726562 11.757812 207.855469 11.472656 204.972656 C 11.191406 202.089844 10.976562 199.199219 10.835938 196.308594 C 10.691406 193.414062 10.621094 190.519531 10.621094 187.621094 C 10.621094 184.726562 10.691406 181.832031 10.835938 178.9375 C 10.976562 176.042969 11.191406 173.15625 11.472656 170.273438 C 11.757812 167.390625 12.113281 164.515625 12.539062 161.652344 C 12.960938 158.785156 13.457031 155.933594 14.023438 153.089844 C 14.589844 150.25 15.222656 147.425781 15.925781 144.613281 C 16.628906 141.804688 17.402344 139.011719 18.242188 136.242188 C 19.085938 133.46875 19.992188 130.71875 20.96875 127.992188 C 21.945312 125.265625 22.988281 122.5625 24.09375 119.886719 C 25.203125 117.210938 26.378906 114.5625 27.617188 111.945312 C 28.855469 109.324219 30.15625 106.738281 31.523438 104.183594 C 32.886719 101.628906 34.316406 99.109375 35.804688 96.625 C 37.292969 94.140625 38.84375 91.695312 40.453125 89.285156 C 42.0625 86.878906 43.730469 84.511719 45.453125 82.183594 C 47.179688 79.855469 48.960938 77.574219 50.800781 75.335938 C 52.636719 73.09375 54.527344 70.902344 56.472656 68.757812 C 58.417969 66.609375 60.414062 64.511719 62.464844 62.464844 C 64.511719 60.414062 66.609375 58.417969 68.757812 56.472656 C 70.902344 54.527344 73.09375 52.636719 75.335938 50.800781 C 77.574219 48.960938 79.855469 47.179688 82.183594 45.453125 C 84.511719 43.730469 86.878906 42.0625 89.285156 40.453125 C 91.695312 38.84375 94.140625 37.292969 96.625 35.804688 C 99.109375 34.316406 101.628906 32.886719 104.183594 31.523438 C 106.738281 30.15625 109.324219 28.855469 111.945312 27.617188 C 114.5625 26.378906 117.210938 25.203125 119.886719 24.09375 C 122.5625 22.988281 125.265625 21.945312 127.992188 20.96875 C 130.71875 19.992188 133.46875 19.085938 136.242188 18.242188 C 139.011719 17.402344 141.804688 16.628906 144.613281 15.925781 C 147.425781 15.222656 150.25 14.589844 153.089844 14.023438 C 155.933594 13.457031 158.785156 12.960938 161.652344 12.539062 C 164.515625 12.113281 167.390625 11.757812 170.273438 11.472656 C 173.15625 11.191406 176.042969 10.976562 178.9375 10.835938 C 181.832031 10.691406 184.726562 10.621094 187.621094 10.621094 C 190.519531 10.621094 193.414062 10.691406 196.308594 10.835938 C 199.199219 10.976562 202.089844 11.191406 204.972656 11.472656 C 207.855469 11.757812 210.726562 12.113281 213.59375 12.539062 C 216.457031 12.960938 219.3125 13.457031 222.152344 14.023438 C 224.992188 14.589844 227.820312 15.222656 230.628906 15.925781 C 233.4375 16.628906 236.230469 17.402344 239.003906 18.242188 C 241.773438 19.085938 244.523438 19.992188 247.25 20.96875 C 249.980469 21.945312 252.679688 22.988281 255.355469 24.09375 C 258.03125 25.203125 260.679688 26.378906 263.300781 27.617188 C 265.917969 28.855469 268.503906 30.15625 271.058594 31.523438 C 273.613281 32.886719 276.132812 34.316406 278.617188 35.804688 C 281.101562 37.292969 283.550781 38.84375 285.957031 40.453125 C 288.367188 42.0625 290.734375 43.730469 293.0625 45.453125 C 295.386719 47.179688 297.671875 48.960938 299.910156 50.800781 C 302.148438 52.636719 304.339844 54.527344 306.488281 56.472656 C 308.632812 58.417969 310.730469 60.414062 312.78125 62.464844 C 314.828125 64.511719 316.824219 66.609375 318.769531 68.757812 C 320.714844 70.902344 322.605469 73.09375 324.445312 75.335938 C 326.28125 77.574219 328.0625 79.855469 329.789062 82.183594 C 331.515625 84.511719 333.183594 86.878906 334.792969 89.285156 C 336.402344 91.695312 337.949219 94.140625 339.441406 96.625 C 340.929688 99.109375 342.355469 101.628906 343.722656 104.183594 C 345.085938 106.738281 346.390625 109.324219 347.628906 111.945312 C 348.867188 114.5625 350.039062 117.210938 351.148438 119.886719 C 352.257812 122.5625 353.300781 125.265625 354.273438 127.992188 C 355.25 130.71875 356.160156 133.46875 357 136.242188 C 357.839844 139.011719 358.613281 141.804688 359.316406 144.613281 C 360.019531 147.425781 360.65625 150.25 361.222656 153.089844 C 361.785156 155.933594 362.28125 158.785156 362.707031 161.652344 C 363.132812 164.515625 363.484375 167.390625 363.769531 170.273438 C 364.054688 173.15625 364.265625 176.042969 364.410156 178.9375 C 364.550781 181.832031 364.621094 184.726562 364.621094 187.621094 Z M 364.621094 187.621094 " fill-opacity="1" fill-rule="nonzero"/></g><g clip-path="url(#7194010dd2)"><path fill="#067d82" d="M 340.5625 187.828125 C 340.5625 190.335938 340.503906 192.847656 340.378906 195.355469 C 340.253906 197.863281 340.070312 200.367188 339.828125 202.867188 C 339.578125 205.367188 339.269531 207.859375 338.902344 210.34375 C 338.53125 212.828125 338.105469 215.300781 337.613281 217.765625 C 337.125 220.230469 336.574219 222.679688 335.964844 225.117188 C 335.355469 227.550781 334.683594 229.972656 333.953125 232.375 C 333.226562 234.777344 332.441406 237.164062 331.589844 239.527344 C 330.746094 241.894531 329.84375 244.238281 328.878906 246.554688 C 327.921875 248.878906 326.902344 251.175781 325.832031 253.441406 C 324.753906 255.714844 323.625 257.957031 322.441406 260.171875 C 321.257812 262.386719 320.019531 264.574219 318.726562 266.726562 C 317.4375 268.878906 316.09375 271.003906 314.699219 273.089844 C 313.300781 275.179688 311.859375 277.234375 310.363281 279.25 C 308.863281 281.269531 307.320312 283.246094 305.726562 285.1875 C 304.132812 287.128906 302.492188 289.03125 300.808594 290.894531 C 299.117188 292.753906 297.390625 294.574219 295.613281 296.347656 C 293.835938 298.121094 292.015625 299.855469 290.15625 301.542969 C 288.296875 303.230469 286.394531 304.871094 284.453125 306.460938 C 282.511719 308.058594 280.53125 309.601562 278.511719 311.097656 C 276.496094 312.589844 274.445312 314.039062 272.355469 315.433594 C 270.269531 316.832031 268.144531 318.171875 265.992188 319.464844 C 263.835938 320.757812 261.652344 321.992188 259.4375 323.179688 C 257.21875 324.363281 254.976562 325.492188 252.710938 326.5625 C 250.4375 327.636719 248.140625 328.65625 245.820312 329.617188 C 243.503906 330.578125 241.160156 331.480469 238.792969 332.328125 C 236.425781 333.171875 234.042969 333.960938 231.640625 334.691406 C 229.238281 335.417969 226.816406 336.089844 224.382812 336.699219 C 221.945312 337.308594 219.496094 337.859375 217.03125 338.351562 C 214.570312 338.839844 212.089844 339.269531 209.609375 339.636719 C 207.125 340.007812 204.632812 340.316406 202.128906 340.558594 C 199.632812 340.808594 197.128906 340.992188 194.621094 341.113281 C 192.109375 341.238281 189.601562 341.300781 187.089844 341.300781 C 184.578125 341.300781 182.066406 341.238281 179.558594 341.113281 C 177.050781 340.992188 174.542969 340.808594 172.046875 340.558594 C 169.546875 340.316406 167.054688 340.007812 164.570312 339.636719 C 162.085938 339.269531 159.613281 338.839844 157.144531 338.351562 C 154.683594 337.859375 152.234375 337.308594 149.800781 336.699219 C 147.363281 336.089844 144.941406 335.417969 142.535156 334.691406 C 140.132812 333.960938 137.75 333.171875 135.382812 332.328125 C 133.023438 331.480469 130.679688 330.578125 128.355469 329.617188 C 126.035156 328.65625 123.742188 327.636719 121.46875 326.5625 C 119.199219 325.492188 116.957031 324.363281 114.742188 323.179688 C 112.527344 321.992188 110.339844 320.757812 108.1875 319.464844 C 106.03125 318.171875 103.914062 316.832031 101.820312 315.433594 C 99.734375 314.039062 97.683594 312.589844 95.664062 311.097656 C 93.648438 309.601562 91.667969 308.058594 89.726562 306.460938 C 87.785156 304.871094 85.882812 303.230469 84.023438 301.542969 C 82.160156 299.855469 80.339844 298.121094 78.566406 296.347656 C 76.789062 294.574219 75.058594 292.753906 73.371094 290.894531 C 71.683594 289.03125 70.046875 287.128906 68.449219 285.1875 C 66.859375 283.246094 65.3125 281.269531 63.820312 279.25 C 62.320312 277.234375 60.875 275.179688 59.476562 273.089844 C 58.082031 271.003906 56.738281 268.878906 55.449219 266.726562 C 54.160156 264.574219 52.917969 262.386719 51.734375 260.171875 C 50.554688 257.957031 49.421875 255.714844 48.351562 253.441406 C 47.273438 251.175781 46.257812 248.878906 45.296875 246.554688 C 44.335938 244.238281 43.429688 241.894531 42.585938 239.527344 C 41.738281 237.164062 40.949219 234.777344 40.222656 232.375 C 39.492188 229.972656 38.824219 227.550781 38.210938 225.117188 C 37.601562 222.679688 37.054688 220.230469 36.5625 217.765625 C 36.074219 215.300781 35.644531 212.828125 35.277344 210.34375 C 34.90625 207.859375 34.597656 205.367188 34.355469 202.867188 C 34.105469 200.367188 33.921875 197.863281 33.796875 195.355469 C 33.675781 192.847656 33.613281 190.335938 33.613281 187.828125 C 33.613281 185.3125 33.675781 182.800781 33.796875 180.296875 C 33.921875 177.785156 34.105469 175.28125 34.355469 172.78125 C 34.597656 170.28125 34.90625 167.789062 35.277344 165.308594 C 35.644531 162.820312 36.074219 160.347656 36.5625 157.882812 C 37.054688 155.421875 37.601562 152.96875 38.210938 150.535156 C 38.824219 148.097656 39.492188 145.675781 40.222656 143.273438 C 40.949219 140.871094 41.738281 138.484375 42.585938 136.121094 C 43.429688 133.753906 44.335938 131.414062 45.296875 129.09375 C 46.257812 126.769531 47.273438 124.476562 48.351562 122.207031 C 49.421875 119.9375 50.554688 117.691406 51.734375 115.476562 C 52.917969 113.261719 54.160156 111.078125 55.449219 108.921875 C 56.738281 106.769531 58.082031 104.648438 59.476562 102.558594 C 60.875 100.472656 62.320312 98.417969 63.820312 96.398438 C 65.3125 94.382812 66.859375 92.402344 68.449219 90.460938 C 70.046875 88.519531 71.683594 86.617188 73.371094 84.757812 C 75.058594 82.894531 76.789062 81.078125 78.566406 79.300781 C 80.339844 77.527344 82.160156 75.792969 84.023438 74.109375 C 85.882812 72.421875 87.785156 70.78125 89.726562 69.1875 C 91.667969 67.59375 93.648438 66.050781 95.664062 64.550781 C 97.683594 63.058594 99.734375 61.609375 101.820312 60.214844 C 103.914062 58.820312 106.03125 57.476562 108.1875 56.183594 C 110.339844 54.894531 112.527344 53.65625 114.742188 52.472656 C 116.957031 51.285156 119.199219 50.160156 121.46875 49.085938 C 123.742188 48.011719 126.035156 46.992188 128.355469 46.03125 C 130.679688 45.074219 133.023438 44.167969 135.382812 43.320312 C 137.75 42.476562 140.132812 41.6875 142.535156 40.957031 C 144.941406 40.230469 147.363281 39.558594 149.800781 38.949219 C 152.234375 38.339844 154.683594 37.789062 157.144531 37.296875 C 159.613281 36.808594 162.085938 36.378906 164.570312 36.011719 C 167.054688 35.640625 169.546875 35.335938 172.046875 35.089844 C 174.542969 34.84375 177.050781 34.660156 179.558594 34.535156 C 182.066406 34.410156 184.578125 34.351562 187.089844 34.351562 C 189.601562 34.351562 192.109375 34.410156 194.621094 34.535156 C 197.128906 34.660156 199.632812 34.84375 202.128906 35.089844 C 204.632812 35.335938 207.125 35.640625 209.609375 36.011719 C 212.089844 36.378906 214.570312 36.808594 217.03125 37.296875 C 219.496094 37.789062 221.945312 38.339844 224.382812 38.949219 C 226.816406 39.558594 229.238281 40.230469 231.640625 40.957031 C 234.042969 41.6875 236.425781 42.476562 238.792969 43.320312 C 241.160156 44.167969 243.503906 45.074219 245.820312 46.03125 C 248.140625 46.992188 250.4375 48.011719 252.710938 49.085938 C 254.976562 50.160156 257.21875 51.285156 259.4375 52.472656 C 261.652344 53.65625 263.835938 54.894531 265.992188 56.183594 C 268.144531 57.476562 270.269531 58.820312 272.355469 60.214844 C 274.445312 61.609375 276.496094 63.058594 278.511719 64.550781 C 280.53125 66.050781 282.511719 67.59375 284.453125 69.1875 C 286.394531 70.78125 288.296875 72.421875 290.15625 74.109375 C 292.015625 75.792969 293.835938 77.527344 295.613281 79.300781 C 297.390625 81.078125 299.117188 82.894531 300.808594 84.757812 C 302.492188 86.617188 304.132812 88.519531 305.726562 90.460938 C 307.320312 92.402344 308.863281 94.382812 310.363281 96.398438 C 311.859375 98.417969 313.300781 100.472656 314.699219 102.558594 C 316.09375 104.648438 317.4375 106.769531 318.726562 108.921875 C 320.019531 111.078125 321.257812 113.261719 322.441406 115.476562 C 323.625 117.691406 324.753906 119.9375 325.832031 122.207031 C 326.902344 124.476562 327.921875 126.769531 328.878906 129.09375 C 329.84375 131.414062 330.746094 133.753906 331.589844 136.121094 C 332.441406 138.484375 333.226562 140.871094 333.953125 143.273438 C 334.683594 145.675781 335.355469 148.097656 335.964844 150.535156 C 336.574219 152.96875 337.125 155.421875 337.613281 157.882812 C 338.105469 160.347656 338.53125 162.820312 338.902344 165.308594 C 339.269531 167.789062 339.578125 170.28125 339.828125 172.78125 C 340.070312 175.28125 340.253906 177.785156 340.378906 180.296875 C 340.503906 182.800781 340.5625 185.3125 340.5625 187.828125 Z M 340.5625 187.828125 " fill-opacity="1" fill-rule="nonzero"/></g><g clip-path="url(#f96b9c7b27)"><g clip-path="url(#d312731f88)"><g clip-path="url(#ab569efdeb)"><path fill="#ffffff" d="M 249.707031 304.65625 C 238.832031 310.285156 227.132812 314.183594 215.199219 316.554688 C 205.429688 318.433594 195.511719 319.425781 185.585938 319.378906 C 184.261719 319.410156 182.941406 319.292969 181.621094 319.246094 C 180.304688 319.175781 178.980469 319.144531 177.664062 319.042969 L 173.71875 318.679688 L 171.746094 318.5 L 169.78125 318.230469 L 165.851562 317.707031 C 164.550781 317.5 163.253906 317.242188 161.953125 317.019531 C 159.339844 316.613281 156.773438 315.976562 154.1875 315.421875 C 153.816406 315.34375 153.425781 315.257812 153.015625 315.167969 C 152.617188 315.058594 152.199219 314.945312 151.761719 314.828125 C 150.898438 314.589844 149.964844 314.332031 148.972656 314.054688 C 146.96875 313.554688 144.796875 312.777344 142.390625 311.980469 C 141.796875 311.777344 141.179688 311.589844 140.5625 311.355469 C 139.949219 311.117188 139.324219 310.871094 138.6875 310.625 C 137.414062 310.121094 136.097656 309.605469 134.738281 309.070312 C 132.089844 307.839844 129.207031 306.671875 126.355469 305.125 C 114.714844 299.363281 102.199219 290.246094 91.582031 279.238281 C 81.058594 268.144531 72.5 255.246094 67.257812 243.363281 C 65.835938 240.441406 64.796875 237.511719 63.683594 234.8125 C 63.210938 233.429688 62.753906 232.089844 62.308594 230.800781 C 62.085938 230.148438 61.871094 229.515625 61.65625 228.894531 C 61.453125 228.269531 61.292969 227.644531 61.113281 227.035156 C 60.425781 224.601562 59.746094 222.394531 59.332031 220.375 C 59.097656 219.367188 58.886719 218.425781 58.683594 217.546875 C 58.585938 217.113281 58.488281 216.691406 58.398438 216.28125 C 58.328125 215.871094 58.257812 215.480469 58.195312 215.105469 C 56.382812 205.339844 55.457031 195.425781 55.574219 185.496094 C 55.796875 174.921875 57.328125 164.410156 59.753906 154.101562 C 62.648438 142.28125 67.058594 130.765625 73.164062 120.152344 C 79.140625 109.460938 86.871094 99.765625 95.675781 91.191406 C 104.628906 82.773438 114.660156 75.476562 125.605469 69.976562 C 136.476562 64.34375 148.175781 60.445312 160.113281 58.074219 C 169.878906 56.199219 179.796875 55.203125 189.722656 55.25 C 191.046875 55.222656 192.363281 55.339844 193.683594 55.386719 C 195.003906 55.457031 196.324219 55.488281 197.644531 55.585938 L 203.566406 56.128906 L 205.527344 56.398438 L 209.453125 56.925781 C 210.757812 57.128906 212.054688 57.386719 213.355469 57.613281 C 215.96875 58.015625 218.535156 58.652344 221.125 59.207031 C 221.496094 59.289062 221.886719 59.375 222.289062 59.460938 C 222.691406 59.570312 223.109375 59.6875 223.542969 59.804688 C 224.410156 60.042969 225.34375 60.300781 226.335938 60.574219 C 228.339844 61.078125 230.515625 61.859375 232.914062 62.648438 C 233.511719 62.851562 234.132812 63.039062 234.746094 63.277344 C 235.359375 63.511719 235.984375 63.757812 236.621094 64.007812 C 237.890625 64.507812 239.210938 65.023438 240.570312 65.5625 C 243.21875 66.792969 246.101562 67.957031 248.957031 69.507812 C 260.59375 75.265625 273.105469 84.382812 283.722656 95.390625 C 294.25 106.484375 302.808594 119.382812 308.050781 131.269531 C 309.472656 134.1875 310.511719 137.117188 311.621094 139.820312 C 312.097656 141.199219 312.554688 142.539062 313 143.832031 C 313.222656 144.480469 313.441406 145.113281 313.652344 145.738281 C 313.855469 146.359375 314.015625 146.988281 314.195312 147.59375 C 314.878906 150.027344 315.5625 152.234375 315.980469 154.257812 C 316.207031 155.261719 316.421875 156.203125 316.625 157.082031 C 316.71875 157.519531 316.816406 157.945312 316.910156 158.347656 C 316.980469 158.757812 317.050781 159.148438 317.113281 159.527344 C 318.921875 169.292969 319.851562 179.207031 319.738281 189.132812 C 319.507812 199.707031 317.980469 210.222656 315.554688 220.527344 C 312.660156 232.347656 308.246094 243.863281 302.144531 254.480469 C 296.167969 265.171875 288.4375 274.867188 279.632812 283.441406 C 270.675781 291.863281 260.648438 299.15625 249.707031 304.65625 Z M 281.8125 285.589844 L 281.816406 285.578125 C 290.804688 276.824219 298.710938 266.921875 304.835938 256.003906 C 311.082031 245.15625 315.59375 233.386719 318.519531 221.296875 L 319.792969 215.609375 C 319.792969 215.609375 320.09375 214.035156 320.539062 211.671875 C 321.050781 209.320312 321.402344 206.128906 321.867188 202.957031 C 322.140625 199.761719 322.527344 196.578125 322.5625 194.171875 C 322.667969 191.769531 322.738281 190.167969 322.738281 190.167969 C 322.738281 190.167969 322.75 189.769531 322.753906 189.070312 C 322.757812 188.371094 322.761719 187.367188 322.765625 186.164062 C 322.839844 183.761719 322.644531 180.558594 322.519531 177.359375 C 322.410156 175.761719 322.242188 174.167969 322.109375 172.671875 C 322.042969 171.921875 321.976562 171.199219 321.914062 170.511719 C 321.820312 169.832031 321.726562 169.1875 321.644531 168.589844 C 321.316406 166.210938 321.09375 164.625 321.09375 164.625 C 321.09375 164.625 321.0625 164.261719 320.960938 163.726562 C 320.867188 163.1875 320.738281 162.472656 320.613281 161.753906 C 320.363281 160.324219 320.113281 158.890625 320.113281 158.890625 C 320.046875 158.507812 319.976562 158.105469 319.90625 157.683594 C 319.8125 157.265625 319.71875 156.835938 319.621094 156.386719 C 319.414062 155.488281 319.199219 154.523438 318.960938 153.492188 C 318.542969 151.425781 317.851562 149.164062 317.148438 146.671875 C 316.96875 146.050781 316.804688 145.414062 316.59375 144.773438 C 316.378906 144.132812 316.15625 143.480469 315.933594 142.820312 C 315.480469 141.496094 315.011719 140.125 314.527344 138.710938 C 313.390625 135.945312 312.332031 132.945312 310.878906 129.953125 C 305.519531 117.789062 296.761719 104.570312 285.988281 93.222656 C 275.128906 81.960938 262.3125 72.628906 250.390625 66.742188 C 247.46875 65.160156 244.519531 63.960938 241.804688 62.710938 C 240.414062 62.164062 239.066406 61.632812 237.761719 61.125 C 237.109375 60.867188 236.46875 60.621094 235.839844 60.375 C 235.210938 60.136719 234.578125 59.945312 233.96875 59.734375 C 231.511719 58.929688 229.277344 58.132812 227.230469 57.621094 C 226.214844 57.347656 225.261719 57.085938 224.367188 56.84375 C 223.925781 56.722656 223.496094 56.605469 223.089844 56.5 C 222.667969 56.40625 222.273438 56.320312 221.890625 56.238281 C 221.890625 56.238281 220.46875 55.921875 219.050781 55.609375 C 218.339844 55.453125 217.632812 55.296875 217.097656 55.179688 C 216.570312 55.050781 216.207031 55.007812 216.207031 55.007812 C 216.207031 55.007812 214.632812 54.714844 212.265625 54.28125 C 211.675781 54.167969 211.035156 54.050781 210.359375 53.929688 C 209.675781 53.835938 208.957031 53.738281 208.214844 53.636719 C 206.722656 53.441406 205.136719 53.203125 203.546875 53.019531 C 200.355469 52.753906 197.167969 52.417969 194.761719 52.386719 C 193.5625 52.335938 192.558594 52.300781 191.859375 52.273438 C 191.15625 52.242188 190.757812 52.238281 190.757812 52.238281 C 190.757812 52.238281 189.15625 52.234375 186.753906 52.234375 C 184.347656 52.167969 181.148438 52.414062 177.945312 52.539062 C 174.753906 52.867188 171.550781 53.078125 169.179688 53.488281 C 166.796875 53.832031 165.210938 54.058594 165.210938 54.058594 L 159.476562 55.082031 C 147.269531 57.46875 135.308594 61.457031 124.199219 67.21875 C 113.019531 72.855469 102.78125 80.316406 93.636719 88.910156 L 93.628906 88.917969 L 93.496094 89.042969 L 93.492188 89.050781 C 84.5 97.808594 76.59375 107.707031 70.472656 118.625 C 64.226562 129.472656 59.710938 141.242188 56.789062 153.332031 L 55.515625 159.015625 C 55.515625 159.015625 55.21875 160.59375 54.773438 162.957031 C 54.261719 165.3125 53.90625 168.503906 53.4375 171.675781 C 53.171875 174.867188 52.785156 178.054688 52.746094 180.460938 C 52.640625 182.859375 52.570312 184.460938 52.570312 184.460938 C 52.570312 184.460938 52.558594 184.859375 52.558594 185.5625 C 52.554688 186.265625 52.546875 187.261719 52.539062 188.464844 C 52.464844 190.871094 52.664062 194.070312 52.789062 197.269531 C 52.902344 198.871094 53.070312 200.460938 53.199219 201.960938 C 53.269531 202.707031 53.332031 203.429688 53.394531 204.117188 C 53.488281 204.796875 53.578125 205.441406 53.664062 206.039062 C 53.996094 208.417969 54.214844 210.007812 54.214844 210.007812 C 54.214844 210.007812 54.246094 210.367188 54.347656 210.90625 C 54.441406 211.441406 54.566406 212.160156 54.691406 212.875 C 54.945312 214.308594 55.195312 215.742188 55.195312 215.742188 C 55.261719 216.125 55.328125 216.527344 55.402344 216.949219 C 55.492188 217.363281 55.589844 217.796875 55.691406 218.246094 C 55.890625 219.144531 56.113281 220.109375 56.34375 221.136719 C 56.765625 223.207031 57.460938 225.46875 58.15625 227.957031 C 58.34375 228.578125 58.507812 229.21875 58.714844 229.859375 C 58.929688 230.5 59.148438 231.148438 59.375 231.808594 C 59.828125 233.132812 60.300781 234.507812 60.78125 235.921875 C 61.914062 238.6875 62.980469 241.6875 64.433594 244.675781 C 69.789062 256.839844 78.546875 270.058594 89.316406 281.410156 C 100.179688 292.667969 113 302 124.917969 307.890625 C 127.839844 309.472656 130.789062 310.667969 133.503906 311.921875 C 134.894531 312.46875 136.246094 312.996094 137.550781 313.507812 C 138.199219 313.761719 138.839844 314.007812 139.464844 314.257812 C 140.097656 314.492188 140.730469 314.6875 141.34375 314.894531 C 143.800781 315.703125 146.027344 316.496094 148.078125 317.007812 C 149.09375 317.285156 150.050781 317.546875 150.9375 317.789062 C 151.382812 317.90625 151.808594 318.023438 152.222656 318.136719 C 152.636719 318.226562 153.035156 318.308594 153.414062 318.394531 C 153.414062 318.394531 154.835938 318.707031 156.257812 319.019531 C 156.96875 319.175781 157.679688 319.335938 158.210938 319.453125 C 158.742188 319.578125 159.101562 319.625 159.101562 319.625 C 159.101562 319.625 160.679688 319.914062 163.042969 320.351562 C 163.632812 320.460938 164.273438 320.578125 164.949219 320.703125 C 165.632812 320.796875 166.351562 320.894531 167.097656 320.992188 C 168.585938 321.191406 170.171875 321.425781 171.761719 321.609375 C 174.957031 321.878906 178.140625 322.214844 180.550781 322.246094 C 181.75 322.292969 182.75 322.332031 183.449219 322.359375 C 184.148438 322.386719 184.550781 322.394531 184.550781 322.394531 C 184.550781 322.394531 186.152344 322.394531 188.558594 322.394531 C 190.960938 322.460938 194.160156 322.21875 197.363281 322.089844 C 200.550781 321.761719 203.757812 321.550781 206.128906 321.144531 C 208.511719 320.800781 210.097656 320.570312 210.097656 320.570312 L 215.835938 319.550781 C 228.042969 317.164062 240 313.171875 251.109375 307.410156 C 262.289062 301.777344 272.527344 294.3125 281.671875 285.71875 L 281.679688 285.710938 L 281.746094 285.652344 L 281.8125 285.589844 " fill-opacity="1" fill-rule="nonzero"/></g></g></g><path fill="#ffffff" d="M 81.195312 283.238281 L 92.578125 272.457031 L 99.816406 280.085938 L 97.875 281.921875 L 92.726562 276.492188 L 89.800781 279.269531 L 94.09375 283.800781 L 92.28125 285.503906 L 87.992188 280.972656 L 83.289062 285.433594 Z M 81.195312 283.238281 " fill-opacity="1" fill-rule="nonzero"/><path fill="#ffffff" d="M 104.425781 300.925781 C 105.003906 301.351562 105.578125 301.59375 106.140625 301.648438 C 106.710938 301.703125 107.261719 301.628906 107.789062 301.433594 C 108.316406 301.246094 108.8125 300.941406 109.277344 300.523438 C 109.742188 300.101562 110.167969 299.636719 110.550781 299.128906 L 115.3125 292.707031 L 117.726562 294.503906 L 112.964844 300.925781 C 112.328125 301.78125 111.628906 302.511719 110.859375 303.125 C 110.089844 303.730469 109.273438 304.148438 108.40625 304.382812 C 107.550781 304.625 106.644531 304.644531 105.699219 304.449219 C 104.761719 304.261719 103.808594 303.808594 102.84375 303.097656 C 101.832031 302.351562 101.105469 301.542969 100.660156 300.667969 C 100.21875 299.800781 99.992188 298.921875 99.976562 298.027344 C 99.964844 297.128906 100.140625 296.226562 100.496094 295.320312 C 100.863281 294.417969 101.347656 293.5625 101.945312 292.761719 L 106.703125 286.339844 L 109.171875 288.148438 L 104.414062 294.570312 C 104.015625 295.097656 103.6875 295.648438 103.421875 296.21875 C 103.160156 296.78125 103.007812 297.34375 102.964844 297.90625 C 102.929688 298.460938 103.019531 298.996094 103.234375 299.515625 C 103.453125 300.03125 103.851562 300.503906 104.425781 300.925781 Z M 104.425781 300.925781 " fill-opacity="1" fill-rule="nonzero"/><path fill="#ffffff" d="M 119.730469 313.824219 L 126.714844 299.800781 L 129.433594 301.167969 L 123.644531 312.804688 L 130.800781 316.359375 L 129.609375 318.742188 Z M 119.730469 313.824219 " fill-opacity="1" fill-rule="nonzero"/><path fill="#ffffff" d="M 140.675781 323.0625 L 145.316406 308.085938 L 148.210938 308.984375 L 144.363281 321.414062 L 152.003906 323.785156 L 151.214844 326.332031 Z M 140.675781 323.0625 " fill-opacity="1" fill-rule="nonzero"/><path fill="#ffffff" d="M 187.335938 319.332031 C 187.226562 319.21875 187.039062 319.070312 186.773438 318.890625 C 186.503906 318.703125 186.175781 318.519531 185.792969 318.339844 C 185.417969 318.160156 185.003906 318.003906 184.546875 317.871094 C 184.089844 317.734375 183.625 317.664062 183.152344 317.65625 C 182.3125 317.628906 181.679688 317.761719 181.261719 318.058594 C 180.839844 318.351562 180.621094 318.777344 180.605469 319.332031 C 180.59375 319.664062 180.660156 319.933594 180.804688 320.148438 C 180.957031 320.363281 181.175781 320.5625 181.464844 320.738281 C 181.757812 320.910156 182.125 321.066406 182.574219 321.207031 C 183.019531 321.351562 183.535156 321.511719 184.117188 321.675781 C 184.867188 321.914062 185.550781 322.15625 186.167969 322.414062 C 186.792969 322.667969 187.316406 322.972656 187.738281 323.339844 C 188.15625 323.707031 188.476562 324.140625 188.703125 324.640625 C 188.921875 325.144531 189.023438 325.753906 188.996094 326.476562 C 188.96875 327.316406 188.785156 328.03125 188.449219 328.621094 C 188.117188 329.207031 187.675781 329.667969 187.132812 330.015625 C 186.585938 330.363281 185.960938 330.609375 185.257812 330.753906 C 184.558594 330.90625 183.824219 330.96875 183.058594 330.941406 C 181.878906 330.90625 180.714844 330.691406 179.574219 330.3125 C 178.4375 329.917969 177.421875 329.386719 176.53125 328.714844 L 177.964844 326.128906 C 178.097656 326.261719 178.328125 326.445312 178.660156 326.664062 C 179 326.890625 179.402344 327.117188 179.867188 327.347656 C 180.332031 327.574219 180.851562 327.769531 181.421875 327.9375 C 181.992188 328.097656 182.578125 328.191406 183.179688 328.21875 C 184.859375 328.265625 185.714844 327.75 185.753906 326.679688 C 185.757812 326.339844 185.671875 326.046875 185.484375 325.808594 C 185.304688 325.566406 185.042969 325.359375 184.695312 325.175781 C 184.34375 324.988281 183.917969 324.816406 183.421875 324.652344 C 182.925781 324.484375 182.375 324.300781 181.757812 324.105469 C 181.015625 323.871094 180.371094 323.628906 179.828125 323.367188 C 179.292969 323.097656 178.839844 322.796875 178.472656 322.457031 C 178.113281 322.117188 177.851562 321.726562 177.683594 321.289062 C 177.511719 320.851562 177.433594 320.332031 177.453125 319.734375 C 177.480469 318.9375 177.648438 318.238281 177.964844 317.628906 C 178.277344 317.023438 178.703125 316.523438 179.238281 316.128906 C 179.773438 315.726562 180.390625 315.429688 181.085938 315.242188 C 181.792969 315.046875 182.542969 314.960938 183.339844 314.988281 C 184.4375 315.023438 185.445312 315.230469 186.355469 315.605469 C 187.273438 315.980469 188.074219 316.417969 188.757812 316.917969 Z M 187.335938 319.332031 " fill-opacity="1" fill-rule="nonzero"/><path fill="#ffffff" d="M 211.042969 315.761719 L 206.082031 316.445312 L 207.839844 329.328125 L 204.835938 329.730469 L 203.082031 316.847656 L 198.121094 317.53125 L 197.757812 314.890625 L 210.679688 313.121094 Z M 211.042969 315.761719 " fill-opacity="1" fill-rule="nonzero"/><path fill="#ffffff" d="M 224.042969 309.644531 L 226.601562 308.824219 L 237.019531 321.964844 L 234.03125 322.914062 L 231.46875 319.617188 L 226.253906 321.28125 L 226.066406 325.449219 L 223.078125 326.402344 Z M 230.277344 317.753906 L 226.363281 312.539062 L 226.078125 319.09375 Z M 230.277344 317.753906 " fill-opacity="1" fill-rule="nonzero"/><path fill="#ffffff" d="M 243.359375 310.671875 C 242.921875 309.832031 242.632812 308.921875 242.5 307.9375 C 242.367188 306.945312 242.425781 305.972656 242.675781 305.011719 C 242.914062 304.046875 243.355469 303.144531 243.988281 302.292969 C 244.625 301.445312 245.488281 300.734375 246.574219 300.160156 C 247.84375 299.488281 249.089844 299.191406 250.316406 299.261719 C 251.539062 299.324219 252.617188 299.683594 253.546875 300.335938 L 252.21875 302.867188 C 251.835938 302.574219 251.441406 302.367188 251.039062 302.238281 C 250.636719 302.105469 250.242188 302.039062 249.859375 302.039062 C 249.484375 302.039062 249.113281 302.089844 248.746094 302.199219 C 248.378906 302.296875 248.039062 302.425781 247.730469 302.585938 C 247.046875 302.957031 246.535156 303.40625 246.1875 303.941406 C 245.832031 304.476562 245.605469 305.050781 245.503906 305.65625 C 245.394531 306.265625 245.40625 306.890625 245.53125 307.535156 C 245.648438 308.171875 245.851562 308.765625 246.148438 309.316406 C 246.46875 309.925781 246.875 310.464844 247.367188 310.925781 C 247.855469 311.390625 248.390625 311.742188 248.976562 311.984375 C 249.566406 312.226562 250.175781 312.347656 250.8125 312.347656 C 251.457031 312.339844 252.074219 312.179688 252.675781 311.863281 C 252.988281 311.695312 253.292969 311.484375 253.585938 311.234375 C 253.890625 310.976562 254.148438 310.679688 254.363281 310.347656 C 254.585938 310.011719 254.757812 309.644531 254.875 309.25 C 254.988281 308.847656 255.023438 308.417969 254.980469 307.960938 L 257.863281 308.054688 C 257.917969 308.699219 257.839844 309.328125 257.636719 309.933594 C 257.429688 310.542969 257.144531 311.125 256.777344 311.675781 C 256.410156 312.222656 255.972656 312.722656 255.464844 313.179688 C 254.953125 313.625 254.421875 313.996094 253.867188 314.289062 C 252.867188 314.820312 251.84375 315.089844 250.796875 315.09375 C 249.757812 315.105469 248.769531 314.933594 247.824219 314.585938 C 246.875 314.230469 246.011719 313.710938 245.234375 313.03125 C 244.457031 312.351562 243.835938 311.566406 243.359375 310.671875 Z M 243.359375 310.671875 " fill-opacity="1" fill-rule="nonzero"/><path fill="#ffffff" d="M 269.660156 304.445312 L 260.035156 292.097656 L 262.433594 290.222656 L 267.007812 296.09375 L 267.609375 286.160156 L 270.265625 284.109375 L 269.796875 293.277344 L 280.199219 296.242188 L 277.503906 298.332031 L 269.488281 295.988281 L 269.179688 298.882812 L 272.0625 302.570312 Z M 269.660156 304.445312 " fill-opacity="1" fill-rule="nonzero"/><path fill="#ffffff" d="M 298.390625 277.046875 L 285.667969 267.890625 L 288.992188 263.265625 C 289.742188 262.230469 290.570312 261.441406 291.472656 260.90625 C 292.367188 260.363281 293.292969 260.03125 294.25 259.914062 C 295.195312 259.800781 296.148438 259.886719 297.105469 260.179688 C 298.058594 260.46875 298.972656 260.929688 299.851562 261.5625 C 300.816406 262.253906 301.585938 263.023438 302.15625 263.882812 C 302.738281 264.738281 303.101562 265.648438 303.257812 266.601562 C 303.417969 267.550781 303.371094 268.519531 303.125 269.511719 C 302.882812 270.496094 302.414062 271.464844 301.714844 272.421875 Z M 298.054688 264.054688 C 297.445312 263.621094 296.828125 263.300781 296.191406 263.101562 C 295.558594 262.898438 294.941406 262.820312 294.34375 262.875 C 293.734375 262.929688 293.164062 263.117188 292.625 263.4375 C 292.082031 263.761719 291.59375 264.222656 291.164062 264.820312 L 289.621094 266.976562 L 298 273.023438 L 299.542969 270.867188 C 299.988281 270.257812 300.269531 269.640625 300.386719 269.015625 C 300.511719 268.382812 300.5 267.777344 300.347656 267.191406 C 300.203125 266.613281 299.9375 266.054688 299.542969 265.515625 C 299.148438 264.972656 298.652344 264.484375 298.054688 264.054688 Z M 298.054688 264.054688 " fill-opacity="1" fill-rule="nonzero"/><path fill="#ffffff" d="M 314.789062 244.363281 L 317.191406 245.519531 L 312.457031 255.316406 L 298.339844 248.507812 L 302.980469 238.882812 L 305.378906 240.035156 L 302.070312 246.925781 L 305.472656 248.574219 L 308.34375 242.621094 L 310.566406 243.695312 L 307.699219 249.648438 L 311.386719 251.429688 Z M 314.789062 244.363281 " fill-opacity="1" fill-rule="nonzero"/><path fill="#ffffff" d="M 307.003906 228 L 319.566406 227.207031 L 309.324219 219.902344 L 310.210938 216.820312 L 323.589844 227.007812 L 322.878906 229.472656 L 306.121094 231.082031 Z M 307.003906 228 " fill-opacity="1" fill-rule="nonzero"/><path fill="#ffffff" d="M 325.859375 198.441406 L 328.511719 198.722656 L 327.332031 209.558594 L 311.753906 207.867188 L 312.90625 197.238281 L 315.5625 197.519531 L 314.742188 205.121094 L 318.496094 205.535156 L 319.207031 198.964844 L 321.660156 199.234375 L 320.949219 205.804688 L 325.011719 206.246094 Z M 325.859375 198.441406 " fill-opacity="1" fill-rule="nonzero"/><path fill="#ffffff" d="M 328.746094 186.324219 L 313.101562 187.179688 L 312.941406 184.152344 L 325.917969 183.441406 L 325.476562 175.449219 L 328.144531 175.304688 Z M 328.746094 186.324219 " fill-opacity="1" fill-rule="nonzero"/><path fill="#ffffff" d="M 325.058594 156.898438 C 325.320312 158.023438 325.339844 159.097656 325.113281 160.113281 C 324.890625 161.128906 324.496094 162.042969 323.933594 162.863281 C 323.363281 163.6875 322.652344 164.382812 321.800781 164.953125 C 320.953125 165.523438 320.042969 165.925781 319.066406 166.160156 C 318.046875 166.402344 317.03125 166.441406 316.011719 166.28125 C 314.984375 166.128906 314.035156 165.800781 313.167969 165.289062 C 312.304688 164.789062 311.546875 164.132812 310.902344 163.320312 C 310.257812 162.507812 309.8125 161.5625 309.5625 160.488281 C 309.304688 159.382812 309.292969 158.324219 309.535156 157.3125 C 309.769531 156.292969 310.175781 155.375 310.753906 154.550781 C 311.339844 153.730469 312.050781 153.03125 312.898438 152.460938 C 313.742188 151.890625 314.644531 151.492188 315.609375 151.265625 C 316.628906 151.023438 317.644531 150.980469 318.664062 151.132812 C 319.675781 151.285156 320.609375 151.609375 321.46875 152.097656 C 322.324219 152.589844 323.074219 153.246094 323.71875 154.070312 C 324.363281 154.894531 324.8125 155.835938 325.058594 156.898438 Z M 318.355469 163.144531 C 319.019531 162.984375 319.636719 162.734375 320.207031 162.394531 C 320.78125 162.054688 321.257812 161.640625 321.640625 161.148438 C 322.015625 160.65625 322.285156 160.101562 322.445312 159.484375 C 322.601562 158.859375 322.589844 158.199219 322.417969 157.5 C 322.257812 156.785156 321.96875 156.1875 321.546875 155.703125 C 321.128906 155.214844 320.632812 154.839844 320.058594 154.578125 C 319.480469 154.308594 318.863281 154.15625 318.210938 154.109375 C 317.558594 154.066406 316.914062 154.117188 316.277344 154.269531 C 315.628906 154.425781 315.015625 154.671875 314.441406 155.019531 C 313.863281 155.367188 313.382812 155.792969 313.007812 156.28125 C 312.625 156.773438 312.355469 157.328125 312.203125 157.941406 C 312.050781 158.558594 312.054688 159.214844 312.214844 159.898438 C 312.386719 160.617188 312.6875 161.222656 313.113281 161.710938 C 313.542969 162.203125 314.039062 162.578125 314.601562 162.835938 C 315.164062 163.097656 315.777344 163.25 316.425781 163.292969 C 317.078125 163.339844 317.722656 163.289062 318.355469 163.144531 Z M 318.355469 163.144531 " fill-opacity="1" fill-rule="nonzero"/><path fill="#ffffff" d="M 319.058594 137.691406 L 304.6875 143.9375 L 302.046875 137.835938 C 301.761719 137.1875 301.632812 136.519531 301.65625 135.839844 C 301.683594 135.152344 301.84375 134.507812 302.128906 133.910156 C 302.40625 133.300781 302.78125 132.761719 303.253906 132.285156 C 303.71875 131.8125 304.242188 131.449219 304.820312 131.1875 C 305.429688 130.929688 306.070312 130.785156 306.738281 130.757812 C 307.410156 130.726562 308.050781 130.804688 308.667969 131 C 309.277344 131.199219 309.835938 131.515625 310.34375 131.953125 C 310.855469 132.378906 311.253906 132.925781 311.539062 133.585938 L 313.027344 136.992188 L 317.851562 134.902344 Z M 310.585938 138.066406 L 309.179688 134.820312 C 308.957031 134.3125 308.558594 133.976562 307.984375 133.816406 C 307.414062 133.648438 306.773438 133.71875 306.054688 134.03125 C 305.691406 134.191406 305.382812 134.386719 305.144531 134.621094 C 304.902344 134.855469 304.722656 135.101562 304.59375 135.371094 C 304.46875 135.632812 304.40625 135.902344 304.40625 136.1875 C 304.40625 136.464844 304.460938 136.722656 304.566406 136.964844 L 305.921875 140.089844 Z M 310.585938 138.066406 " fill-opacity="1" fill-rule="nonzero"/><path fill="#ffffff" d="M 300.394531 108.679688 L 302.632812 107.230469 L 308.570312 116.359375 L 295.433594 124.902344 L 289.601562 115.933594 L 291.839844 114.484375 L 296.007812 120.890625 L 299.171875 118.828125 L 295.566406 113.289062 L 297.632812 111.949219 L 301.238281 117.488281 L 304.671875 115.246094 Z M 300.394531 108.679688 " fill-opacity="1" fill-rule="nonzero"/><path fill="#ffffff" d="M 294.96875 97.402344 L 283.464844 108.046875 L 278.757812 102.964844 C 278.269531 102.429688 277.929688 101.832031 277.742188 101.183594 C 277.546875 100.527344 277.480469 99.871094 277.539062 99.210938 C 277.601562 98.5625 277.777344 97.929688 278.0625 97.320312 C 278.351562 96.714844 278.730469 96.195312 279.203125 95.765625 C 279.945312 95.078125 280.792969 94.640625 281.75 94.453125 C 282.699219 94.257812 283.605469 94.355469 284.472656 94.746094 L 286.375 88.113281 L 288.695312 90.617188 L 287.003906 96.53125 L 289.042969 98.742188 L 292.902344 95.175781 Z M 287.085938 100.550781 L 284.496094 97.738281 C 284.308594 97.542969 284.082031 97.398438 283.8125 97.308594 C 283.546875 97.222656 283.273438 97.1875 282.996094 97.214844 C 282.710938 97.242188 282.417969 97.320312 282.125 97.457031 C 281.824219 97.589844 281.542969 97.777344 281.28125 98.019531 C 281.003906 98.269531 280.792969 98.542969 280.648438 98.835938 C 280.507812 99.132812 280.417969 99.425781 280.382812 99.722656 C 280.347656 100.015625 280.375 100.300781 280.460938 100.578125 C 280.542969 100.855469 280.671875 101.09375 280.851562 101.289062 L 283.359375 103.996094 Z M 287.085938 100.550781 " fill-opacity="1" fill-rule="nonzero"/><path fill="#ffffff" d="M 185.855469 124.792969 C 185.855469 158.933594 178.839844 201.246094 159.671875 223.765625 C 154.332031 216.433594 150.351562 203.027344 147.628906 194.125 C 140.71875 171.710938 135.476562 148.253906 132.757812 124.058594 C 132.648438 122.484375 129.824219 121.859375 126.054688 121.859375 C 121.445312 121.859375 116.101562 123.742188 116.101562 126.359375 C 118.511719 148.671875 123.015625 171.1875 129.929688 193.183594 C 132.859375 202.609375 145.324219 234.132812 157.261719 234.132812 C 174.335938 234.132812 186.484375 207.320312 192.140625 190.878906 C 199.679688 168.886719 202.613281 146.261719 202.613281 123.847656 C 202.613281 121.542969 199.261719 120.808594 195.386719 120.808594 C 190.992188 120.808594 185.855469 122.484375 185.855469 124.792969 Z M 185.855469 124.792969 " fill-opacity="1" fill-rule="nonzero"/><path fill="#ffffff" d="M 241.488281 124.265625 C 241.488281 123.117188 238.347656 122.171875 236.460938 121.648438 C 228.082031 120.074219 219.390625 120.390625 211.742188 122.90625 L 211.847656 122.90625 C 210.171875 123.425781 204.308594 125.210938 205.566406 127.722656 C 206.296875 130.238281 214.152344 131.179688 215.929688 130.238281 L 215.828125 130.238281 C 218.972656 129.1875 222.742188 128.667969 225.882812 128.667969 C 226.617188 132.960938 227.453125 179.566406 227.453125 186.585938 C 227.453125 200.933594 227.351562 254.347656 206.820312 254.347656 C 201.375 254.347656 195.511719 250.265625 191.109375 245.863281 L 191.21875 245.96875 C 187.757812 242.511719 172.46875 245.238281 177.496094 250.785156 C 183.988281 257.175781 194.355469 261.996094 205.566406 261.785156 C 242.640625 261.050781 243.476562 217.691406 243.898438 191.089844 C 244.527344 168.671875 243.476562 146.367188 241.488281 124.265625 Z M 241.488281 124.265625 " fill-opacity="1" fill-rule="nonzero"/><g clip-path="url(#275a8d7e2e)"><g clip-path="url(#7a0f59aca6)"><path fill="#ffffff" d="M 250.371094 210.183594 L 265.832031 210.183594 L 265.832031 225.648438 L 250.371094 225.648438 Z M 250.371094 210.183594 " fill-opacity="1" fill-rule="nonzero"/></g></g></svg>