<svg xmlns="http://www.w3.org/2000/svg" xmlns:xlink="http://www.w3.org/1999/xlink" width="500" zoomAndPan="magnify" viewBox="0 0 375 374.999991" height="500" preserveAspectRatio="xMidYMid meet" version="1.0"><defs><g/><clipPath id="9dd6937701"><path d="M 8.167969 9.027344 L 365.917969 9.027344 L 365.917969 366.777344 L 8.167969 366.777344 Z M 8.167969 9.027344 " clip-rule="nonzero"/></clipPath><clipPath id="078fe3b9dc"><path d="M 30 29 L 292 29 L 292 286 L 30 286 Z M 30 29 " clip-rule="nonzero"/></clipPath><clipPath id="6961241e79"><path d="M 192.648438 -36.96875 L 291.164062 65.992188 L 61.945312 285.320312 L -36.574219 182.359375 Z M 192.648438 -36.96875 " clip-rule="nonzero"/></clipPath><clipPath id="12cda39b2b"><path d="M 192.648438 -36.96875 L 411.976562 192.253906 L 182.753906 411.582031 L -36.574219 182.359375 Z M 192.648438 -36.96875 " clip-rule="nonzero"/></clipPath><clipPath id="3e732ffc33"><path d="M 260.796875 213.960938 L 278.820312 213.960938 L 278.820312 231.984375 L 260.796875 231.984375 Z M 260.796875 213.960938 " clip-rule="nonzero"/></clipPath><clipPath id="374d8ad9d5"><path d="M 269.808594 213.960938 C 264.832031 213.960938 260.796875 217.996094 260.796875 222.972656 C 260.796875 227.949219 264.832031 231.984375 269.808594 231.984375 C 274.785156 231.984375 278.820312 227.949219 278.820312 222.972656 C 278.820312 217.996094 274.785156 213.960938 269.808594 213.960938 " clip-rule="nonzero"/></clipPath></defs><g clip-path="url(#9dd6937701)"><path fill="#067d82" d="M 365.917969 187.902344 C 365.917969 190.828125 365.847656 193.753906 365.703125 196.679688 C 365.558594 199.601562 365.34375 202.519531 365.058594 205.433594 C 364.769531 208.347656 364.410156 211.25 363.980469 214.148438 C 363.550781 217.042969 363.050781 219.925781 362.480469 222.796875 C 361.910156 225.667969 361.269531 228.523438 360.558594 231.363281 C 359.847656 234.203125 359.066406 237.023438 358.214844 239.824219 C 357.367188 242.625 356.449219 245.40625 355.460938 248.160156 C 354.476562 250.917969 353.421875 253.648438 352.300781 256.351562 C 351.183594 259.058594 349.996094 261.734375 348.746094 264.378906 C 347.492188 267.027344 346.175781 269.640625 344.796875 272.222656 C 343.417969 274.804688 341.972656 277.351562 340.46875 279.859375 C 338.964844 282.371094 337.398438 284.84375 335.773438 287.277344 C 334.144531 289.710938 332.460938 292.105469 330.71875 294.457031 C 328.972656 296.808594 327.171875 299.113281 325.316406 301.378906 C 323.457031 303.640625 321.546875 305.855469 319.582031 308.027344 C 317.613281 310.195312 315.597656 312.316406 313.527344 314.382812 C 311.457031 316.453125 309.335938 318.472656 307.167969 320.4375 C 305 322.40625 302.785156 324.316406 300.519531 326.171875 C 298.257812 328.03125 295.949219 329.832031 293.597656 331.574219 C 291.246094 333.316406 288.855469 335.003906 286.421875 336.628906 C 283.988281 338.257812 281.515625 339.820312 279.003906 341.328125 C 276.492188 342.832031 273.945312 344.273438 271.363281 345.65625 C 268.78125 347.035156 266.167969 348.351562 263.523438 349.601562 C 260.875 350.851562 258.199219 352.039062 255.496094 353.160156 C 252.792969 354.28125 250.0625 355.332031 247.304688 356.320312 C 244.546875 357.304688 241.769531 358.222656 238.96875 359.074219 C 236.167969 359.921875 233.347656 360.703125 230.507812 361.414062 C 227.667969 362.125 224.8125 362.765625 221.941406 363.339844 C 219.070312 363.910156 216.183594 364.410156 213.289062 364.839844 C 210.394531 365.269531 207.488281 365.628906 204.574219 365.914062 C 201.664062 366.203125 198.746094 366.417969 195.820312 366.558594 C 192.894531 366.703125 189.972656 366.777344 187.042969 366.777344 C 184.117188 366.777344 181.191406 366.703125 178.265625 366.558594 C 175.34375 366.417969 172.421875 366.203125 169.511719 365.914062 C 166.597656 365.628906 163.691406 365.269531 160.796875 364.839844 C 157.902344 364.410156 155.019531 363.910156 152.144531 363.339844 C 149.273438 362.765625 146.417969 362.125 143.582031 361.414062 C 140.742188 360.703125 137.921875 359.921875 135.117188 359.074219 C 132.316406 358.222656 129.539062 357.304688 126.78125 356.320312 C 124.027344 355.332031 121.296875 354.28125 118.589844 353.160156 C 115.886719 352.039062 113.210938 350.851562 110.5625 349.601562 C 107.917969 348.351562 105.304688 347.035156 102.722656 345.65625 C 100.140625 344.273438 97.59375 342.832031 95.082031 341.328125 C 92.570312 339.820312 90.101562 338.257812 87.664062 336.628906 C 85.230469 335.003906 82.839844 333.316406 80.488281 331.574219 C 78.136719 329.832031 75.828125 328.03125 73.566406 326.171875 C 71.304688 324.316406 69.085938 322.40625 66.917969 320.4375 C 64.75 318.472656 62.628906 316.453125 60.558594 314.382812 C 58.488281 312.316406 56.472656 310.195312 54.503906 308.027344 C 52.539062 305.855469 50.628906 303.640625 48.769531 301.378906 C 46.914062 299.113281 45.113281 296.808594 43.371094 294.457031 C 41.625 292.105469 39.941406 289.710938 38.3125 287.277344 C 36.6875 284.84375 35.121094 282.371094 33.617188 279.859375 C 32.113281 277.351562 30.667969 274.804688 29.289062 272.222656 C 27.910156 269.640625 26.59375 267.027344 25.34375 264.378906 C 24.089844 261.734375 22.90625 259.058594 21.785156 256.351562 C 20.664062 253.648438 19.609375 250.917969 18.625 248.160156 C 17.636719 245.40625 16.71875 242.625 15.871094 239.824219 C 15.019531 237.023438 14.242188 234.203125 13.527344 231.363281 C 12.816406 228.523438 12.175781 225.667969 11.605469 222.796875 C 11.035156 219.925781 10.535156 217.042969 10.105469 214.148438 C 9.675781 211.25 9.316406 208.347656 9.03125 205.433594 C 8.742188 202.519531 8.527344 199.601562 8.382812 196.679688 C 8.238281 193.753906 8.167969 190.828125 8.167969 187.902344 C 8.167969 184.972656 8.238281 182.046875 8.382812 179.125 C 8.527344 176.199219 8.742188 173.28125 9.03125 170.367188 C 9.316406 167.453125 9.675781 164.550781 10.105469 161.65625 C 10.535156 158.757812 11.035156 155.875 11.605469 153.003906 C 12.175781 150.132812 12.816406 147.277344 13.527344 144.4375 C 14.242188 141.597656 15.019531 138.777344 15.871094 135.976562 C 16.71875 133.175781 17.636719 130.394531 18.625 127.640625 C 19.609375 124.882812 20.664062 122.152344 21.785156 119.449219 C 22.90625 116.742188 24.089844 114.066406 25.34375 111.421875 C 26.59375 108.777344 27.910156 106.160156 29.289062 103.578125 C 30.667969 100.996094 32.113281 98.453125 33.617188 95.941406 C 35.121094 93.429688 36.6875 90.957031 38.3125 88.523438 C 39.941406 86.089844 41.625 83.695312 43.371094 81.34375 C 45.113281 78.992188 46.914062 76.6875 48.769531 74.421875 C 50.628906 72.160156 52.539062 69.945312 54.503906 67.777344 C 56.472656 65.605469 58.488281 63.488281 60.558594 61.417969 C 62.628906 59.347656 64.75 57.328125 66.917969 55.363281 C 69.085938 53.398438 71.304688 51.484375 73.566406 49.628906 C 75.828125 47.769531 78.136719 45.972656 80.488281 44.226562 C 82.839844 42.484375 85.230469 40.796875 87.664062 39.171875 C 90.101562 37.546875 92.570312 35.980469 95.082031 34.472656 C 97.59375 32.96875 100.140625 31.527344 102.722656 30.148438 C 105.304688 28.765625 107.917969 27.453125 110.5625 26.199219 C 113.210938 24.949219 115.886719 23.761719 118.589844 22.640625 C 121.296875 21.523438 124.027344 20.46875 126.78125 19.480469 C 129.539062 18.496094 132.316406 17.578125 135.117188 16.726562 C 137.921875 15.878906 140.742188 15.097656 143.582031 14.386719 C 146.417969 13.675781 149.273438 13.035156 152.144531 12.460938 C 155.019531 11.890625 157.902344 11.390625 160.796875 10.960938 C 163.691406 10.53125 166.597656 10.175781 169.511719 9.886719 C 172.421875 9.601562 175.34375 9.386719 178.265625 9.242188 C 181.191406 9.097656 184.117188 9.027344 187.042969 9.027344 C 189.972656 9.027344 192.894531 9.097656 195.820312 9.242188 C 198.746094 9.386719 201.664062 9.601562 204.574219 9.886719 C 207.488281 10.175781 210.394531 10.53125 213.289062 10.960938 C 216.183594 11.390625 219.070312 11.890625 221.941406 12.460938 C 224.8125 13.035156 227.667969 13.675781 230.507812 14.386719 C 233.347656 15.097656 236.167969 15.878906 238.96875 16.726562 C 241.769531 17.578125 244.546875 18.496094 247.304688 19.480469 C 250.0625 20.46875 252.792969 21.523438 255.496094 22.640625 C 258.199219 23.761719 260.875 24.949219 263.523438 26.199219 C 266.167969 27.453125 268.78125 28.765625 271.363281 30.148438 C 273.945312 31.527344 276.492188 32.96875 279.003906 34.472656 C 281.515625 35.980469 283.988281 37.546875 286.421875 39.171875 C 288.855469 40.796875 291.246094 42.484375 293.597656 44.226562 C 295.949219 45.972656 298.257812 47.769531 300.519531 49.628906 C 302.785156 51.484375 305 53.398438 307.167969 55.363281 C 309.335938 57.328125 311.457031 59.347656 313.527344 61.417969 C 315.597656 63.488281 317.613281 65.605469 319.582031 67.777344 C 321.546875 69.945312 323.457031 72.160156 325.316406 74.421875 C 327.171875 76.6875 328.972656 78.992188 330.71875 81.34375 C 332.460938 83.695312 334.144531 86.089844 335.773438 88.523438 C 337.398438 90.957031 338.964844 93.429688 340.46875 95.941406 C 341.972656 98.453125 343.417969 100.996094 344.796875 103.578125 C 346.175781 106.160156 347.492188 108.777344 348.746094 111.421875 C 349.996094 114.066406 351.183594 116.742188 352.300781 119.449219 C 353.421875 122.152344 354.476562 124.882812 355.460938 127.640625 C 356.449219 130.394531 357.367188 133.175781 358.214844 135.976562 C 359.066406 138.777344 359.847656 141.597656 360.558594 144.4375 C 361.269531 147.277344 361.910156 150.132812 362.480469 153.003906 C 363.050781 155.875 363.550781 158.757812 363.980469 161.65625 C 364.410156 164.550781 364.769531 167.453125 365.058594 170.367188 C 365.34375 173.28125 365.558594 176.199219 365.703125 179.125 C 365.847656 182.046875 365.917969 184.972656 365.917969 187.902344 Z M 365.917969 187.902344 " fill-opacity="1" fill-rule="nonzero"/></g><g clip-path="url(#078fe3b9dc)"><g clip-path="url(#6961241e79)"><g clip-path="url(#12cda39b2b)"><path fill="#ffffff" d="M 260.023438 324.066406 C 247.347656 330.628906 233.714844 335.171875 219.804688 337.9375 C 208.417969 340.125 196.859375 341.28125 185.289062 341.226562 C 183.75 341.261719 182.210938 341.128906 180.671875 341.070312 C 179.136719 340.988281 177.59375 340.953125 176.058594 340.835938 L 171.460938 340.414062 L 169.160156 340.203125 L 166.871094 339.890625 L 162.292969 339.277344 C 160.773438 339.039062 159.261719 338.738281 157.746094 338.476562 C 154.699219 338.003906 151.710938 337.261719 148.695312 336.617188 C 148.261719 336.523438 147.808594 336.421875 147.332031 336.320312 C 146.867188 336.191406 146.378906 336.058594 145.871094 335.921875 C 144.863281 335.644531 143.773438 335.34375 142.617188 335.023438 C 140.285156 334.4375 137.75 333.53125 134.949219 332.605469 C 134.253906 332.367188 133.535156 332.148438 132.816406 331.875 C 132.101562 331.597656 131.375 331.3125 130.632812 331.023438 C 129.148438 330.4375 127.613281 329.835938 126.027344 329.210938 C 122.941406 327.777344 119.582031 326.417969 116.257812 324.613281 C 102.691406 317.898438 88.105469 307.273438 75.730469 294.445312 C 63.464844 281.515625 53.488281 266.480469 47.378906 252.628906 C 45.722656 249.226562 44.511719 245.8125 43.214844 242.664062 C 42.664062 241.054688 42.128906 239.492188 41.609375 237.988281 C 41.351562 237.230469 41.101562 236.492188 40.851562 235.765625 C 40.613281 235.039062 40.429688 234.308594 40.21875 233.601562 C 39.417969 230.765625 38.625 228.191406 38.140625 225.835938 C 37.871094 224.664062 37.621094 223.566406 37.386719 222.542969 C 37.273438 222.035156 37.160156 221.542969 37.054688 221.066406 C 36.972656 220.589844 36.890625 220.132812 36.816406 219.695312 C 34.707031 208.3125 33.625 196.757812 33.761719 185.1875 C 34.023438 172.863281 35.804688 160.609375 38.632812 148.597656 C 42.007812 134.820312 47.148438 121.398438 54.261719 109.027344 C 61.230469 96.566406 70.238281 85.265625 80.5 75.273438 C 90.9375 65.460938 102.625 56.957031 115.382812 50.546875 C 128.054688 43.984375 141.6875 39.441406 155.601562 36.675781 C 166.984375 34.492188 178.542969 33.332031 190.113281 33.386719 C 191.65625 33.351562 193.191406 33.488281 194.730469 33.542969 C 196.269531 33.625 197.808594 33.660156 199.34375 33.777344 L 206.246094 34.410156 L 208.53125 34.722656 L 213.109375 35.335938 C 214.628906 35.574219 216.140625 35.875 217.65625 36.136719 C 220.703125 36.609375 223.695312 37.351562 226.710938 37.996094 C 227.144531 38.089844 227.597656 38.191406 228.070312 38.292969 C 228.539062 38.421875 229.023438 38.554688 229.53125 38.691406 C 230.542969 38.96875 231.628906 39.269531 232.785156 39.589844 C 235.121094 40.175781 237.65625 41.085938 240.453125 42.007812 C 241.148438 42.246094 241.871094 42.464844 242.585938 42.738281 C 243.300781 43.015625 244.03125 43.300781 244.773438 43.589844 C 246.253906 44.175781 247.789062 44.777344 249.375 45.402344 C 252.460938 46.835938 255.820312 48.195312 259.148438 50 C 272.714844 56.714844 287.296875 67.339844 299.671875 80.167969 C 311.941406 93.097656 321.914062 108.132812 328.023438 121.984375 C 329.683594 125.386719 330.890625 128.800781 332.1875 131.949219 C 332.742188 133.558594 333.273438 135.121094 333.792969 136.628906 C 334.050781 137.382812 334.304688 138.121094 334.550781 138.847656 C 334.789062 139.574219 334.976562 140.304688 335.183594 141.011719 C 335.984375 143.847656 336.78125 146.421875 337.265625 148.777344 C 337.53125 149.949219 337.78125 151.046875 338.015625 152.070312 C 338.128906 152.582031 338.242188 153.074219 338.347656 153.546875 C 338.433594 154.023438 338.511719 154.480469 338.585938 154.917969 C 340.695312 166.300781 341.777344 177.855469 341.644531 189.425781 C 341.378906 201.75 339.597656 214.003906 336.769531 226.015625 C 333.394531 239.792969 328.253906 253.214844 321.140625 265.585938 C 314.175781 278.046875 305.164062 289.347656 294.902344 299.339844 C 284.464844 309.15625 272.777344 317.65625 260.023438 324.066406 Z M 297.441406 301.84375 L 297.449219 301.832031 C 307.925781 291.628906 317.140625 280.089844 324.277344 267.363281 C 331.558594 254.722656 336.816406 241.003906 340.226562 226.914062 L 341.710938 220.285156 C 341.710938 220.285156 342.058594 218.449219 342.578125 215.695312 C 343.175781 212.953125 343.585938 209.234375 344.128906 205.535156 C 344.445312 201.8125 344.894531 198.101562 344.9375 195.296875 C 345.0625 192.5 345.140625 190.632812 345.140625 190.632812 C 345.140625 190.632812 345.15625 190.167969 345.160156 189.351562 C 345.164062 188.535156 345.167969 187.367188 345.175781 185.964844 C 345.261719 183.164062 345.035156 179.433594 344.886719 175.703125 C 344.757812 173.839844 344.5625 171.984375 344.410156 170.238281 C 344.332031 169.367188 344.253906 168.523438 344.179688 167.722656 C 344.070312 166.929688 343.964844 166.179688 343.867188 165.484375 C 343.484375 162.710938 343.226562 160.859375 343.226562 160.859375 C 343.226562 160.859375 343.191406 160.4375 343.070312 159.8125 C 342.960938 159.1875 342.8125 158.351562 342.667969 157.515625 C 342.375 155.847656 342.082031 154.175781 342.082031 154.175781 C 342.007812 153.730469 341.925781 153.261719 341.84375 152.769531 C 341.734375 152.285156 341.625 151.78125 341.507812 151.257812 C 341.269531 150.210938 341.015625 149.085938 340.742188 147.886719 C 340.253906 145.476562 339.445312 142.839844 338.628906 139.9375 C 338.417969 139.214844 338.226562 138.46875 337.980469 137.722656 C 337.730469 136.976562 337.472656 136.21875 337.210938 135.449219 C 336.683594 133.90625 336.136719 132.304688 335.574219 130.65625 C 334.25 127.433594 333.011719 123.9375 331.320312 120.453125 C 325.074219 106.273438 314.867188 90.867188 302.3125 77.640625 C 289.652344 64.515625 274.714844 53.640625 260.820312 46.777344 C 257.414062 44.933594 253.976562 43.539062 250.8125 42.078125 C 249.191406 41.441406 247.621094 40.824219 246.101562 40.230469 C 245.339844 39.933594 244.59375 39.644531 243.863281 39.359375 C 243.128906 39.082031 242.390625 38.855469 241.679688 38.613281 C 238.816406 37.671875 236.214844 36.746094 233.828125 36.148438 C 232.644531 35.828125 231.53125 35.523438 230.492188 35.242188 C 229.976562 35.101562 229.476562 34.964844 229 34.839844 C 228.511719 34.734375 228.050781 34.632812 227.605469 34.535156 C 227.605469 34.535156 225.949219 34.167969 224.292969 33.804688 C 223.464844 33.621094 222.640625 33.4375 222.019531 33.300781 C 221.402344 33.152344 220.980469 33.101562 220.980469 33.101562 C 220.980469 33.101562 219.144531 32.761719 216.386719 32.253906 C 215.699219 32.125 214.953125 31.988281 214.164062 31.84375 C 213.367188 31.734375 212.53125 31.621094 211.664062 31.503906 C 209.925781 31.277344 208.078125 31 206.222656 30.785156 C 202.503906 30.476562 198.789062 30.082031 195.984375 30.046875 C 194.585938 29.988281 193.417969 29.945312 192.601562 29.914062 C 191.785156 29.878906 191.320312 29.875 191.320312 29.875 C 191.320312 29.875 189.453125 29.871094 186.652344 29.871094 C 183.847656 29.792969 180.121094 30.078125 176.386719 30.226562 C 172.667969 30.609375 168.933594 30.855469 166.167969 31.332031 C 163.390625 31.730469 161.542969 31.996094 161.542969 31.996094 L 154.859375 33.1875 C 140.632812 35.96875 126.691406 40.621094 113.746094 47.335938 C 100.714844 53.902344 88.78125 62.601562 78.125 72.617188 L 78.113281 72.625 L 78.039062 72.695312 L 77.960938 72.769531 L 77.957031 72.78125 C 67.476562 82.988281 58.261719 94.523438 51.125 107.25 C 43.847656 119.890625 38.585938 133.609375 35.179688 147.699219 L 33.695312 154.324219 C 33.695312 154.324219 33.347656 156.164062 32.828125 158.917969 C 32.230469 161.664062 31.820312 165.382812 31.273438 169.078125 C 30.960938 172.800781 30.511719 176.511719 30.464844 179.316406 C 30.34375 182.113281 30.261719 183.980469 30.261719 183.980469 C 30.261719 183.980469 30.246094 184.445312 30.246094 185.261719 C 30.242188 186.082031 30.234375 187.246094 30.226562 188.648438 C 30.140625 191.453125 30.371094 195.179688 30.515625 198.910156 C 30.648438 200.773438 30.84375 202.628906 30.992188 204.375 C 31.074219 205.246094 31.148438 206.089844 31.222656 206.890625 C 31.332031 207.683594 31.4375 208.433594 31.535156 209.128906 C 31.921875 211.902344 32.179688 213.753906 32.179688 213.753906 C 32.179688 213.753906 32.214844 214.175781 32.332031 214.800781 C 32.441406 215.425781 32.589844 216.261719 32.734375 217.097656 C 33.027344 218.765625 33.320312 220.4375 33.320312 220.4375 C 33.398438 220.886719 33.476562 221.355469 33.5625 221.84375 C 33.667969 222.328125 33.78125 222.832031 33.898438 223.355469 C 34.132812 224.402344 34.390625 225.527344 34.660156 226.726562 C 35.152344 229.136719 35.960938 231.773438 36.773438 234.675781 C 36.988281 235.398438 37.179688 236.144531 37.421875 236.890625 C 37.671875 237.636719 37.929688 238.394531 38.191406 239.164062 C 38.71875 240.707031 39.269531 242.308594 39.832031 243.957031 C 41.152344 247.179688 42.394531 250.675781 44.085938 254.160156 C 50.332031 268.339844 60.535156 283.746094 73.089844 296.972656 C 85.75 310.097656 100.691406 320.972656 114.582031 327.835938 C 117.988281 329.679688 121.425781 331.074219 124.589844 332.535156 C 126.210938 333.171875 127.785156 333.789062 129.304688 334.382812 C 130.0625 334.679688 130.808594 334.96875 131.539062 335.257812 C 132.273438 335.53125 133.011719 335.757812 133.726562 336 C 136.589844 336.941406 139.1875 337.867188 141.574219 338.464844 C 142.761719 338.785156 143.875 339.089844 144.910156 339.375 C 145.425781 339.511719 145.925781 339.648438 146.40625 339.777344 C 146.890625 339.882812 147.355469 339.980469 147.796875 340.078125 C 147.796875 340.078125 149.453125 340.445312 151.109375 340.808594 C 151.9375 340.992188 152.765625 341.175781 153.386719 341.3125 C 154.003906 341.460938 154.425781 341.511719 154.425781 341.511719 C 154.425781 341.511719 156.261719 341.851562 159.015625 342.359375 C 159.707031 342.488281 160.453125 342.625 161.238281 342.769531 C 162.035156 342.878906 162.875 342.992188 163.742188 343.109375 C 165.476562 343.339844 167.324219 343.613281 169.179688 343.828125 C 172.902344 344.140625 176.613281 344.53125 179.421875 344.570312 C 180.820312 344.625 181.984375 344.667969 182.800781 344.699219 C 183.617188 344.734375 184.085938 344.742188 184.085938 344.742188 C 184.085938 344.742188 185.953125 344.742188 188.753906 344.742188 C 191.554688 344.820312 195.285156 344.535156 199.015625 344.386719 C 202.734375 344.003906 206.46875 343.757812 209.234375 343.285156 C 212.011719 342.882812 213.859375 342.617188 213.859375 342.617188 L 220.546875 341.429688 C 234.773438 338.644531 248.710938 333.992188 261.660156 327.277344 C 274.6875 320.710938 286.621094 312.011719 297.277344 301.996094 L 297.289062 301.988281 L 297.367188 301.917969 L 297.441406 301.84375 " fill-opacity="1" fill-rule="nonzero"/></g></g></g><g fill="#ffffff" fill-opacity="1"><g transform="translate(62.311587, 297.713328)"><g><path d="M 1.3125 1.390625 L 14.578125 -11.171875 L 23.015625 -2.28125 L 20.75 -0.140625 L 14.75 -6.46875 L 11.34375 -3.234375 L 16.34375 2.046875 L 14.234375 4.03125 L 9.234375 -1.25 L 3.75 3.953125 Z M 1.3125 1.390625 "/></g></g></g><g fill="#ffffff" fill-opacity="1"><g transform="translate(81.168195, 316.406374)"><g><path d="M 9.53125 3.3125 C 10.207031 3.8125 10.875 4.09375 11.53125 4.15625 C 12.195312 4.21875 12.835938 4.132812 13.453125 3.90625 C 14.066406 3.6875 14.644531 3.332031 15.1875 2.84375 C 15.726562 2.351562 16.222656 1.8125 16.671875 1.21875 L 22.21875 -6.265625 L 25.03125 -4.171875 L 19.484375 3.3125 C 18.742188 4.3125 17.925781 5.164062 17.03125 5.875 C 16.132812 6.582031 15.179688 7.070312 14.171875 7.34375 C 13.171875 7.625 12.117188 7.648438 11.015625 7.421875 C 9.921875 7.203125 8.8125 6.675781 7.6875 5.84375 C 6.507812 4.976562 5.660156 4.035156 5.140625 3.015625 C 4.628906 2.003906 4.363281 0.976562 4.34375 -0.0625 C 4.332031 -1.113281 4.535156 -2.164062 4.953125 -3.21875 C 5.378906 -4.269531 5.941406 -5.265625 6.640625 -6.203125 L 12.1875 -13.6875 L 15.0625 -11.578125 L 9.515625 -4.09375 C 9.054688 -3.476562 8.671875 -2.835938 8.359375 -2.171875 C 8.054688 -1.515625 7.878906 -0.859375 7.828125 -0.203125 C 7.785156 0.441406 7.890625 1.066406 8.140625 1.671875 C 8.398438 2.273438 8.863281 2.820312 9.53125 3.3125 Z M 9.53125 3.3125 "/></g></g></g><g fill="#ffffff" fill-opacity="1"><g transform="translate(106.832411, 333.90854)"><g><path d="M 1.703125 0.84375 L 9.84375 -15.5 L 13.015625 -13.90625 L 6.265625 -0.34375 L 14.609375 3.796875 L 13.21875 6.578125 Z M 1.703125 0.84375 "/></g></g></g><g fill="#ffffff" fill-opacity="1"><g transform="translate(131.121386, 344.958097)"><g><path d="M 1.828125 0.5625 L 7.234375 -16.890625 L 10.609375 -15.84375 L 6.125 -1.359375 L 15.03125 1.40625 L 14.109375 4.375 Z M 1.828125 0.5625 "/></g></g></g><g fill="#ffffff" fill-opacity="1"><g transform="translate(156.658041, 351.763706)"><g/></g></g><g fill="#ffffff" fill-opacity="1"><g transform="translate(174.111113, 354.250088)"><g><path d="M 13.21875 -13.078125 C 13.09375 -13.210938 12.875 -13.382812 12.5625 -13.59375 C 12.25 -13.8125 11.867188 -14.023438 11.421875 -14.234375 C 10.984375 -14.441406 10.5 -14.625 9.96875 -14.78125 C 9.4375 -14.9375 8.894531 -15.019531 8.34375 -15.03125 C 7.363281 -15.0625 6.628906 -14.90625 6.140625 -14.5625 C 5.648438 -14.21875 5.394531 -13.722656 5.375 -13.078125 C 5.363281 -12.691406 5.441406 -12.375 5.609375 -12.125 C 5.785156 -11.875 6.039062 -11.644531 6.375 -11.4375 C 6.71875 -11.238281 7.148438 -11.054688 7.671875 -10.890625 C 8.191406 -10.722656 8.789062 -10.539062 9.46875 -10.34375 C 10.34375 -10.070312 11.140625 -9.785156 11.859375 -9.484375 C 12.585938 -9.191406 13.195312 -8.832031 13.6875 -8.40625 C 14.175781 -7.976562 14.550781 -7.472656 14.8125 -6.890625 C 15.070312 -6.304688 15.1875 -5.59375 15.15625 -4.75 C 15.125 -3.769531 14.910156 -2.9375 14.515625 -2.25 C 14.128906 -1.570312 13.617188 -1.03125 12.984375 -0.625 C 12.347656 -0.21875 11.617188 0.0664062 10.796875 0.234375 C 9.984375 0.410156 9.128906 0.484375 8.234375 0.453125 C 6.859375 0.410156 5.503906 0.164062 4.171875 -0.28125 C 2.847656 -0.738281 1.664062 -1.359375 0.625 -2.140625 L 2.296875 -5.15625 C 2.453125 -5 2.722656 -4.789062 3.109375 -4.53125 C 3.503906 -4.269531 3.972656 -4.003906 4.515625 -3.734375 C 5.054688 -3.472656 5.660156 -3.242188 6.328125 -3.046875 C 6.992188 -2.859375 7.675781 -2.75 8.375 -2.71875 C 10.332031 -2.664062 11.332031 -3.265625 11.375 -4.515625 C 11.382812 -4.910156 11.28125 -5.25 11.0625 -5.53125 C 10.851562 -5.8125 10.546875 -6.054688 10.140625 -6.265625 C 9.734375 -6.484375 9.238281 -6.6875 8.65625 -6.875 C 8.082031 -7.070312 7.4375 -7.285156 6.71875 -7.515625 C 5.851562 -7.785156 5.101562 -8.070312 4.46875 -8.375 C 3.84375 -8.6875 3.316406 -9.039062 2.890625 -9.4375 C 2.472656 -9.832031 2.164062 -10.285156 1.96875 -10.796875 C 1.769531 -11.304688 1.679688 -11.910156 1.703125 -12.609375 C 1.734375 -13.535156 1.929688 -14.351562 2.296875 -15.0625 C 2.660156 -15.769531 3.15625 -16.351562 3.78125 -16.8125 C 4.40625 -17.28125 5.125 -17.625 5.9375 -17.84375 C 6.757812 -18.070312 7.632812 -18.171875 8.5625 -18.140625 C 9.84375 -18.097656 11.015625 -17.859375 12.078125 -17.421875 C 13.148438 -16.984375 14.082031 -16.472656 14.875 -15.890625 Z M 13.21875 -13.078125 "/></g></g></g><g fill="#ffffff" fill-opacity="1"><g transform="translate(201.587305, 354.134705)"><g><path d="M 13.375 -17.125 L 7.59375 -16.328125 L 9.640625 -1.3125 L 6.140625 -0.84375 L 4.09375 -15.859375 L -1.6875 -15.0625 L -2.109375 -18.140625 L 12.953125 -20.203125 Z M 13.375 -17.125 "/></g></g></g><g fill="#ffffff" fill-opacity="1"><g transform="translate(228.862104, 349.443344)"><g><path d="M 1.25 -19.5625 L 4.234375 -20.515625 L 16.375 -5.203125 L 12.890625 -4.09375 L 9.90625 -7.9375 L 3.828125 -6 L 3.609375 -1.140625 L 0.125 -0.03125 Z M 8.515625 -10.109375 L 3.953125 -16.1875 L 3.625 -8.546875 Z M 8.515625 -10.109375 "/></g></g></g><g fill="#ffffff" fill-opacity="1"><g transform="translate(256.250815, 339.656221)"><g><path d="M -3.625 -8.578125 C -4.132812 -9.554688 -4.46875 -10.617188 -4.625 -11.765625 C -4.78125 -12.921875 -4.710938 -14.054688 -4.421875 -15.171875 C -4.140625 -16.296875 -3.628906 -17.351562 -2.890625 -18.34375 C -2.148438 -19.332031 -1.144531 -20.160156 0.125 -20.828125 C 1.601562 -21.609375 3.054688 -21.957031 4.484375 -21.875 C 5.910156 -21.800781 7.164062 -21.382812 8.25 -20.625 L 6.703125 -17.671875 C 6.253906 -18.015625 5.796875 -18.257812 5.328125 -18.40625 C 4.859375 -18.5625 4.398438 -18.640625 3.953125 -18.640625 C 3.515625 -18.640625 3.082031 -18.578125 2.65625 -18.453125 C 2.226562 -18.335938 1.832031 -18.1875 1.46875 -18 C 0.675781 -17.570312 0.078125 -17.046875 -0.328125 -16.421875 C -0.742188 -15.796875 -1.007812 -15.128906 -1.125 -14.421875 C -1.25 -13.710938 -1.238281 -12.984375 -1.09375 -12.234375 C -0.957031 -11.492188 -0.71875 -10.800781 -0.375 -10.15625 C 0 -9.445312 0.472656 -8.820312 1.046875 -8.28125 C 1.617188 -7.738281 2.242188 -7.328125 2.921875 -7.046875 C 3.609375 -6.765625 4.320312 -6.625 5.0625 -6.625 C 5.8125 -6.632812 6.535156 -6.820312 7.234375 -7.1875 C 7.597656 -7.382812 7.953125 -7.628906 8.296875 -7.921875 C 8.648438 -8.222656 8.953125 -8.566406 9.203125 -8.953125 C 9.460938 -9.347656 9.660156 -9.773438 9.796875 -10.234375 C 9.929688 -10.703125 9.972656 -11.203125 9.921875 -11.734375 L 13.28125 -11.625 C 13.34375 -10.875 13.253906 -10.144531 13.015625 -9.4375 C 12.773438 -8.726562 12.441406 -8.050781 12.015625 -7.40625 C 11.585938 -6.769531 11.078125 -6.1875 10.484375 -5.65625 C 9.890625 -5.132812 9.269531 -4.703125 8.625 -4.359375 C 7.457031 -3.742188 6.265625 -3.429688 5.046875 -3.421875 C 3.835938 -3.410156 2.679688 -3.609375 1.578125 -4.015625 C 0.472656 -4.429688 -0.53125 -5.035156 -1.4375 -5.828125 C -2.34375 -6.617188 -3.070312 -7.535156 -3.625 -8.578125 Z M -3.625 -8.578125 "/></g></g></g><g fill="#ffffff" fill-opacity="1"><g transform="translate(281.781137, 324.994821)"><g><path d="M 1.5 -1.171875 L -9.71875 -15.5625 L -6.921875 -17.75 L -1.59375 -10.90625 L -0.890625 -22.484375 L 2.203125 -24.875 L 1.65625 -14.1875 L 13.78125 -10.734375 L 10.640625 -8.296875 L 1.296875 -11.03125 L 0.9375 -7.65625 L 4.296875 -3.359375 Z M 1.5 -1.171875 "/></g></g></g><g fill="#ffffff" fill-opacity="1"><g transform="translate(303.637923, 306.439632)"><g/></g></g><g fill="#ffffff" fill-opacity="1"><g transform="translate(315.656412, 293.434889)"><g><path d="M 1.109375 -1.546875 L -13.71875 -12.21875 L -9.84375 -17.609375 C -8.96875 -18.816406 -8.003906 -19.734375 -6.953125 -20.359375 C -5.910156 -20.992188 -4.832031 -21.378906 -3.71875 -21.515625 C -2.613281 -21.648438 -1.503906 -21.546875 -0.390625 -21.203125 C 0.722656 -20.867188 1.789062 -20.332031 2.8125 -19.59375 C 3.9375 -18.789062 4.832031 -17.890625 5.5 -16.890625 C 6.175781 -15.890625 6.601562 -14.832031 6.78125 -13.71875 C 6.96875 -12.613281 6.914062 -11.484375 6.625 -10.328125 C 6.34375 -9.179688 5.796875 -8.050781 4.984375 -6.9375 Z M 0.71875 -16.6875 C 0.0078125 -17.195312 -0.710938 -17.566406 -1.453125 -17.796875 C -2.191406 -18.035156 -2.910156 -18.125 -3.609375 -18.0625 C -4.316406 -18 -4.984375 -17.78125 -5.609375 -17.40625 C -6.242188 -17.03125 -6.8125 -16.492188 -7.3125 -15.796875 L -9.109375 -13.28125 L 0.65625 -6.234375 L 2.453125 -8.75 C 2.972656 -9.457031 3.300781 -10.175781 3.4375 -10.90625 C 3.582031 -11.644531 3.566406 -12.351562 3.390625 -13.03125 C 3.222656 -13.707031 2.910156 -14.359375 2.453125 -14.984375 C 1.992188 -15.617188 1.414062 -16.1875 0.71875 -16.6875 Z M 0.71875 -16.6875 "/></g></g></g><g fill="#ffffff" fill-opacity="1"><g transform="translate(332.333315, 268.282724)"><g><path d="M 3.546875 -14.484375 L 6.34375 -13.140625 L 0.828125 -1.71875 L -15.625 -9.65625 L -10.21875 -20.875 L -7.421875 -19.53125 L -11.28125 -11.5 L -7.3125 -9.578125 L -3.96875 -16.515625 L -1.375 -15.265625 L -4.71875 -8.328125 L -0.421875 -6.25 Z M 3.546875 -14.484375 "/></g></g></g><g fill="#ffffff" fill-opacity="1"><g transform="translate(343.321148, 243.39607)"><g><path d="M -16.515625 -8.671875 L -1.875 -9.59375 L -13.8125 -18.109375 L -12.78125 -21.703125 L 2.8125 -9.828125 L 1.984375 -6.953125 L -17.546875 -5.078125 Z M -16.515625 -8.671875 "/></g></g></g><g fill="#ffffff" fill-opacity="1"><g transform="translate(350.293533, 215.119682)"><g><path d="M -1.515625 -14.84375 L 1.578125 -14.515625 L 0.203125 -1.890625 L -17.953125 -3.859375 L -16.609375 -16.25 L -13.515625 -15.921875 L -14.46875 -7.0625 L -10.09375 -6.578125 L -9.265625 -14.234375 L -6.40625 -13.921875 L -7.234375 -6.265625 L -2.5 -5.75 Z M -1.515625 -14.84375 "/></g></g></g><g fill="#ffffff" fill-opacity="1"><g transform="translate(352.255453, 188.05736)"><g><path d="M -0.109375 -1.90625 L -18.34375 -0.90625 L -18.53125 -4.4375 L -3.40625 -5.265625 L -3.921875 -14.578125 L -0.8125 -14.75 Z M -0.109375 -1.90625 "/></g></g></g><g fill="#ffffff" fill-opacity="1"><g transform="translate(349.942359, 161.338673)"><g><path d="M -2.09375 -9.484375 C -1.789062 -8.171875 -1.769531 -6.921875 -2.03125 -5.734375 C -2.289062 -4.554688 -2.75 -3.488281 -3.40625 -2.53125 C -4.070312 -1.570312 -4.898438 -0.757812 -5.890625 -0.09375 C -6.878906 0.570312 -7.941406 1.039062 -9.078125 1.3125 C -10.265625 1.59375 -11.453125 1.640625 -12.640625 1.453125 C -13.835938 1.273438 -14.941406 0.890625 -15.953125 0.296875 C -16.960938 -0.285156 -17.84375 -1.050781 -18.59375 -2 C -19.34375 -2.945312 -19.863281 -4.046875 -20.15625 -5.296875 C -20.457031 -6.585938 -20.46875 -7.820312 -20.1875 -9 C -19.914062 -10.1875 -19.441406 -11.257812 -18.765625 -12.21875 C -18.085938 -13.175781 -17.253906 -13.988281 -16.265625 -14.65625 C -15.285156 -15.320312 -14.234375 -15.785156 -13.109375 -16.046875 C -11.921875 -16.328125 -10.734375 -16.378906 -9.546875 -16.203125 C -8.367188 -16.023438 -7.28125 -15.648438 -6.28125 -15.078125 C -5.28125 -14.503906 -4.40625 -13.738281 -3.65625 -12.78125 C -2.90625 -11.820312 -2.382812 -10.722656 -2.09375 -9.484375 Z M -9.90625 -2.203125 C -9.132812 -2.390625 -8.414062 -2.679688 -7.75 -3.078125 C -7.082031 -3.472656 -6.523438 -3.957031 -6.078125 -4.53125 C -5.640625 -5.101562 -5.328125 -5.75 -5.140625 -6.46875 C -4.960938 -7.195312 -4.972656 -7.96875 -5.171875 -8.78125 C -5.359375 -9.613281 -5.695312 -10.3125 -6.1875 -10.875 C -6.675781 -11.445312 -7.253906 -11.882812 -7.921875 -12.1875 C -8.597656 -12.5 -9.316406 -12.679688 -10.078125 -12.734375 C -10.835938 -12.785156 -11.585938 -12.722656 -12.328125 -12.546875 C -13.085938 -12.367188 -13.800781 -12.078125 -14.46875 -11.671875 C -15.144531 -11.265625 -15.703125 -10.773438 -16.140625 -10.203125 C -16.585938 -9.628906 -16.898438 -8.984375 -17.078125 -8.265625 C -17.253906 -7.546875 -17.25 -6.785156 -17.0625 -5.984375 C -16.863281 -5.148438 -16.515625 -4.445312 -16.015625 -3.875 C -15.515625 -3.300781 -14.9375 -2.863281 -14.28125 -2.5625 C -13.625 -2.257812 -12.914062 -2.082031 -12.15625 -2.03125 C -11.394531 -1.976562 -10.644531 -2.035156 -9.90625 -2.203125 Z M -9.90625 -2.203125 "/></g></g></g><g fill="#ffffff" fill-opacity="1"><g transform="translate(341.620491, 131.217623)"><g><path d="M -0.765625 -1.75 L -17.515625 5.53125 L -20.59375 -1.578125 C -20.925781 -2.335938 -21.078125 -3.113281 -21.046875 -3.90625 C -21.015625 -4.707031 -20.832031 -5.457031 -20.5 -6.15625 C -20.175781 -6.863281 -19.738281 -7.492188 -19.1875 -8.046875 C -18.644531 -8.597656 -18.035156 -9.023438 -17.359375 -9.328125 C -16.648438 -9.628906 -15.90625 -9.796875 -15.125 -9.828125 C -14.34375 -9.867188 -13.59375 -9.773438 -12.875 -9.546875 C -12.164062 -9.316406 -11.515625 -8.945312 -10.921875 -8.4375 C -10.328125 -7.9375 -9.863281 -7.300781 -9.53125 -6.53125 L -7.796875 -2.5625 L -2.171875 -5 Z M -10.640625 -1.3125 L -12.28125 -5.09375 C -12.539062 -5.6875 -13.003906 -6.078125 -13.671875 -6.265625 C -14.335938 -6.460938 -15.085938 -6.378906 -15.921875 -6.015625 C -16.347656 -5.828125 -16.703125 -5.597656 -16.984375 -5.328125 C -17.265625 -5.054688 -17.476562 -4.765625 -17.625 -4.453125 C -17.769531 -4.148438 -17.84375 -3.832031 -17.84375 -3.5 C -17.84375 -3.175781 -17.78125 -2.875 -17.65625 -2.59375 L -16.078125 1.046875 Z M -10.640625 -1.3125 "/></g></g></g><g fill="#ffffff" fill-opacity="1"><g transform="translate(329.661534, 106.202774)"><g><path d="M -10.5625 -10.546875 L -7.953125 -12.234375 L -1.03125 -1.59375 L -16.34375 8.359375 L -23.140625 -2.09375 L -20.53125 -3.78125 L -15.671875 3.6875 L -11.984375 1.28125 L -16.1875 -5.171875 L -13.78125 -6.734375 L -9.578125 -0.28125 L -5.578125 -2.890625 Z M -10.5625 -10.546875 "/></g></g></g><g fill="#ffffff" fill-opacity="1"><g transform="translate(314.07292, 83.918625)"><g><path d="M -1.296875 -1.40625 L -14.703125 11 L -20.1875 5.078125 C -20.757812 4.453125 -21.15625 3.757812 -21.375 3 C -21.601562 2.238281 -21.679688 1.472656 -21.609375 0.703125 C -21.535156 -0.0546875 -21.332031 -0.789062 -21 -1.5 C -20.664062 -2.207031 -20.222656 -2.8125 -19.671875 -3.3125 C -18.804688 -4.113281 -17.816406 -4.625 -16.703125 -4.84375 C -15.597656 -5.070312 -14.539062 -4.957031 -13.53125 -4.5 L -11.3125 -12.234375 L -8.609375 -9.3125 L -10.578125 -2.421875 L -8.203125 0.15625 L -3.703125 -4 Z M -10.484375 2.265625 L -13.5 -1.015625 C -13.71875 -1.242188 -13.984375 -1.410156 -14.296875 -1.515625 C -14.609375 -1.617188 -14.925781 -1.65625 -15.25 -1.625 C -15.582031 -1.59375 -15.921875 -1.5 -16.265625 -1.34375 C -16.617188 -1.1875 -16.945312 -0.96875 -17.25 -0.6875 C -17.570312 -0.394531 -17.816406 -0.078125 -17.984375 0.265625 C -18.148438 0.609375 -18.253906 0.953125 -18.296875 1.296875 C -18.335938 1.640625 -18.304688 1.972656 -18.203125 2.296875 C -18.109375 2.617188 -17.957031 2.894531 -17.75 3.125 L -14.828125 6.28125 Z M -10.484375 2.265625 "/></g></g></g><g fill="#ffffff" fill-opacity="1"><g transform="translate(97.472661, 241.752199)"><g><path d="M 88.132812 -127.316406 C 88.132812 -87.523438 79.957031 -38.207031 57.617188 -11.960938 C 51.390625 -20.507812 46.753906 -36.132812 43.578125 -46.507812 C 35.523438 -72.632812 29.417969 -99.972656 26.246094 -128.171875 C 26.121094 -130.003906 22.828125 -130.734375 18.433594 -130.734375 C 13.0625 -130.734375 6.835938 -128.539062 6.835938 -125.488281 C 9.644531 -99.484375 14.890625 -73.242188 22.949219 -47.605469 C 26.367188 -36.621094 40.894531 0.121094 54.808594 0.121094 C 74.707031 0.121094 88.867188 -31.128906 95.457031 -50.292969 C 104.246094 -75.925781 107.664062 -102.292969 107.664062 -128.417969 C 107.664062 -131.101562 103.757812 -131.957031 99.242188 -131.957031 C 94.117188 -131.957031 88.132812 -130.003906 88.132812 -127.316406 Z M 88.132812 -127.316406 "/></g></g></g><g fill="#ffffff" fill-opacity="1"><g transform="translate(198.444162, 241.752199)"><g><path d="M 52 -127.929688 C 52 -129.269531 48.339844 -130.371094 46.140625 -130.980469 C 36.375 -132.8125 26.246094 -132.445312 17.332031 -129.515625 L 17.457031 -129.515625 C 15.503906 -128.90625 8.667969 -126.828125 10.132812 -123.898438 C 10.984375 -120.96875 20.140625 -119.871094 22.214844 -120.96875 L 22.09375 -120.96875 C 25.757812 -122.191406 30.152344 -122.800781 33.8125 -122.800781 C 34.667969 -117.796875 35.644531 -63.476562 35.644531 -55.296875 C 35.644531 -38.574219 35.523438 23.679688 11.597656 23.679688 C 5.25 23.679688 -1.585938 18.921875 -6.714844 13.792969 L -6.589844 13.914062 C -10.621094 9.886719 -28.441406 13.0625 -22.582031 19.53125 C -15.015625 26.976562 -2.929688 32.59375 10.132812 32.347656 C 53.34375 31.492188 54.320312 -19.042969 54.808594 -50.046875 C 55.542969 -76.171875 54.320312 -102.171875 52 -127.929688 Z M 52 -127.929688 "/></g></g></g><g clip-path="url(#3e732ffc33)"><g clip-path="url(#374d8ad9d5)"><path fill="#ffffff" d="M 260.796875 213.960938 L 278.820312 213.960938 L 278.820312 231.984375 L 260.796875 231.984375 Z M 260.796875 213.960938 " fill-opacity="1" fill-rule="nonzero"/></g></g></svg>